<svg width="59" height="60" viewBox="0 0 59 60" fill="none" xmlns="http://www.w3.org/2000/svg">
<path d="M15.9717 57.9996H7.58868C6.10647 57.9996 4.68497 57.4096 3.63689 56.3594C2.58881 55.3093 2 53.8849 2 52.3997V32.7998C2 31.3146 2.58881 29.8902 3.63689 28.84C4.68497 27.7898 6.10647 27.1998 7.58868 27.1998H15.9717M35.5321 21.5999V10.3999C35.5321 8.17214 34.6489 6.03558 33.0767 4.46029C31.5046 2.88499 29.3724 2 27.1491 2L15.9717 27.1998V57.9996H47.4918C48.8396 58.0149 50.1475 57.5416 51.1745 56.6669C52.2015 55.7922 52.8784 54.575 53.0805 53.2397L56.9367 28.0398C57.0583 27.2372 57.0043 26.4178 56.7784 25.6382C56.5525 24.8586 56.1602 24.1375 55.6286 23.5249C55.097 22.9123 54.4388 22.4229 53.6997 22.0905C52.9605 21.7581 52.1581 21.5907 51.348 21.5999H35.5321Z" stroke="#1E489B" stroke-width="3" stroke-linecap="round" stroke-linejoin="round"/>
</svg>
