<svg
  aria-hidden="true"
  style="position:absolute;width:0;height:0"
  xmlns="http://www.w3.org/2000/svg"
  overflow="hidden"
><defs><symbol id="achievement" viewBox="0 0 32 32"><path
        d="M30.498 28.141h-2.237v-12.06a.469.469 0 00-.938 0v12.06h-6.884V12.413c0-.121.098-.219.219-.219h6.446c.121 0 .219.098.219.219v1.476a.469.469 0 00.938 0v-1.476c0-.638-.519-1.157-1.157-1.157H24.35V7.781l5.566-2.706c.305-.149.495-.452.495-.791s-.19-.643-.495-.791L24.677.946a.88.88 0 00-1.265.791v9.52h-2.754c-.638 0-1.157.519-1.157 1.157v5.039h-6.665c-.638 0-1.157.519-1.157 1.157v4.146H5.014c-.638 0-1.157.519-1.157 1.157v4.23H1.499c-.828 0-1.502.673-1.502 1.501s.674 1.501 1.502 1.501h28.997c.828 0 1.502-.673 1.502-1.501s-.674-1.502-1.501-1.502zM24.351 1.829l5.05 2.455-5.05 2.455V1.828zM4.797 23.911c0-.121.098-.219.219-.219h6.665v1.242a.469.469 0 00.938 0v-6.325c0-.121.098-.219.219-.219h6.665v9.751h-6.884v-1.016a.469.469 0 00-.938 0v1.016H4.797v-4.23zm25.701 6.296H1.501a.565.565 0 010-1.128h28.997a.565.565 0 010 1.128z"
      /></symbol><symbol id="arrow" viewBox="0 0 25 32"><path
        fill="var(--color2, #fff)"
        d="M24.686 16L0 32V0l24.686 16z"
      /></symbol><symbol id="arrow-done" viewBox="0 0 59 32"><path
        fill="none"
        stroke="var(--color2, #fff)"
        stroke-width="2.667"
        d="M2.667 2.667l26.667 26.667L56.001 2.667"
      /></symbol><symbol id="arrow-left" viewBox="0 0 75 32"><path
        stroke-width="2.667"
        d="M74.667 16H3.556M17.27 2.286L3.556 16 17.27 29.714"
      /></symbol><symbol id="arrow-right" viewBox="0 0 75 32"><path
        stroke-width="2.667"
        d="M0 16h71.111M57.397 2.286L71.111 16 57.397 29.714"
      /></symbol><symbol id="arrow-up" viewBox="0 0 59 32"><path
        fill="none"
        stroke="var(--color2, #fff)"
        stroke-width="2.667"
        d="M2.667 29.333L29.334 2.666l26.667 26.667"
      /></symbol><symbol id="avto" viewBox="0 0 37 32"><path
        fill="none"
        stroke="var(--color2, #fff)"
        stroke-miterlimit="10"
        stroke-width="1.032"
        d="M20.733 25.898H2.381M-7.715 25.898h-3.176a1.77 1.77 0 01-1.767-1.764V2.797c0-.977.789-1.764 1.767-1.764h33.938c.473 0 .915.189 1.252.515l11.316 11.299c.337.336.515.777.515 1.25v10.039c0 .977-.789 1.764-1.767 1.764h-3.534"
      /><path
        fill="none"
        stroke="var(--color2, #fff)"
        stroke-miterlimit="10"
        stroke-width="1.032"
        d="M26.864 4.119H-8.315a.866.866 0 00-.862.861v5.87c0 .473.389.861.862.861h42.772M17.567 4.119v21.778M-2.667 30.938c2.788 0 5.048-2.257 5.048-5.04s-2.26-5.04-5.048-5.04c-2.788 0-5.048 2.257-5.048 5.04s2.26 5.04 5.048 5.04zM25.781 30.938c2.788 0 5.048-2.257 5.048-5.04s-2.26-5.04-5.048-5.04c-2.788 0-5.048 2.257-5.048 5.04s2.26 5.04 5.048 5.04zM36.129 15.901h-4.144a1.01 1.01 0 00-1.01 1.008v1.575c0 .557.452 1.008 1.01 1.008h4.144M23.498 15.901h-3.365M36.129 22.821h-3.218M26.738 25.898h-1.525"
      /></symbol><symbol id="blueprint" viewBox="0 0 32 32"><path
        d="M27.5 3a.498.498 0 00-.5.5V6H5V3.5a.498.498 0 00-.5-.5A3.504 3.504 0 001 6.5v19.105c.001.9.359 1.763.996 2.399s1.499.994 2.399.996h23.21A3.4 3.4 0 0031 25.603V6.5A3.504 3.504 0 0027.5 3zM2 6.5a2.498 2.498 0 012-2.45v17.985c-.76.11-1.463.467-2 1.017V6.5zm28 19.105A2.398 2.398 0 0127.605 28H4.395A2.397 2.397 0 012 25.603V25.5A2.503 2.503 0 014.5 23a.498.498 0 00.5-.5V7h22v15.5a.498.498 0 00.5.5 2.503 2.503 0 012.5 2.5v.105zm0-2.553a3.494 3.494 0 00-2-1.017V4.05c.564.116 1.071.423 1.436.869S30 5.924 30 6.5v16.553z"
      /><path
        d="M25.5 10H11a.498.498 0 00-.5.5V14h-4a.498.498 0 00-.5.5v10a.498.498 0 00.5.5h12a.498.498 0 00.5-.5V18h3.5a.498.498 0 00.5-.5.498.498 0 00-.5-.5h-9a.498.498 0 00-.5.5V20a.498.498 0 00.5.5.498.498 0 00.5-.5v-2h4v6h-4v-2a.498.498 0 00-.5-.5.498.498 0 00-.5.5v2H7v-4h4a.498.498 0 00.5-.5.498.498 0 00-.5-.5H7v-4h4a.498.498 0 00.5-.5V11H18v4a.498.498 0 00.5.5.498.498 0 00.5-.5v-4h2.535c.112.88.513 1.698 1.141 2.325s1.445 1.028 2.325 1.141v9.535h-4a.498.498 0 00-.5.5.498.498 0 00.5.5h4.5a.498.498 0 00.5-.5v-14a.498.498 0 00-.5-.5zm-2.955 1H25v2.455A3.005 3.005 0 0122.545 11z"
      /></symbol><symbol id="certificate" viewBox="0 0 32 32"><path
        d="M26.219 12.778H5.782a.469.469 0 000 .938h20.437a.469.469 0 000-.938zM18.94 15.145H5.782a.469.469 0 000 .938H18.94a.469.469 0 000-.938zM17.439 18.449a.469.469 0 000-.938H5.782a.469.469 0 000 .938h11.657zM19.42 10.444c.557 0 1.011-.453 1.011-1.011v-.825c0-.557-.453-1.011-1.011-1.011h-6.841c-.557 0-1.011.453-1.011 1.011v.825c0 .557.453 1.011 1.011 1.011h6.841zm-6.913-1.011v-.825c0-.04.033-.073.073-.073h6.841c.04 0 .073.033.073.073v.825c0 .04-.032.073-.073.073H12.58a.073.073 0 01-.072-.073z"
      /><path
        d="M17.663 22.067H5.874a3.419 3.419 0 00-2.452-2.496v-4.372a.469.469 0 00-.938 0v4.388c0 .419.28.784.682.887.896.23 1.586.933 1.801 1.833a.91.91 0 00.891.698h11.805a.469.469 0 000-.938zM28.835 7.731a2.483 2.483 0 01-1.801-1.833.912.912 0 00-.891-.699H5.858a.91.91 0 00-.891.698A2.483 2.483 0 013.166 7.73a.912.912 0 00-.682.887v4.387a.469.469 0 00.938 0V8.633a3.417 3.417 0 002.452-2.496h20.253a3.42 3.42 0 002.452 2.496v8.33a.469.469 0 00.938 0V8.617a.913.913 0 00-.682-.887z"
      /><path
        d="M29.839 2.775H2.162c-1.192 0-2.161.97-2.161 2.161v18.331c0 1.192.97 2.161 2.161 2.161h18.92l-.769 2.012a.712.712 0 00.85.941l.865-.233.489.752a.712.712 0 001.261-.134l.656-1.717.656 1.717a.712.712 0 001.261.134l.489-.752.865.233a.712.712 0 00.85-.941l-.769-2.012h2.053c1.192 0 2.161-.97 2.161-2.161V4.936c0-1.192-.97-2.161-2.161-2.161zM20.41 19.97a.344.344 0 01.196-.604 1.282 1.282 0 001.144-1.575.343.343 0 01.514-.373c.671.41 1.55.123 1.852-.602a.343.343 0 01.635 0 1.283 1.283 0 001.852.602.344.344 0 01.514.373 1.282 1.282 0 001.144 1.575.343.343 0 01.196.604 1.283 1.283 0 000 1.947.344.344 0 01-.196.604 1.282 1.282 0 00-1.144 1.575.344.344 0 01-.514.373 1.283 1.283 0 00-1.852.602.343.343 0 01-.635 0 1.284 1.284 0 00-1.852-.602.344.344 0 01-.514-.373 1.282 1.282 0 00-1.144-1.575.343.343 0 01-.196-.604 1.283 1.283 0 000-1.947zm2.65 8.047l-.337-.517a.712.712 0 00-.782-.299l-.594.16.727-1.9c.233.002.467-.061.679-.191a.344.344 0 01.497.162c.115.277.312.494.557.63l-.748 1.955zm3.866-.816a.71.71 0 00-.782.299l-.337.517-.747-1.955a1.27 1.27 0 00.557-.63.344.344 0 01.497-.161c.213.13.447.193.679.191l.727 1.9-.594-.16zm4.136-3.933c0 .674-.549 1.223-1.223 1.223h-1.811c.049-.195.051-.404.002-.613a.343.343 0 01.307-.423c1.136-.092 1.598-1.509.732-2.252a.344.344 0 010-.522c.865-.742.406-2.16-.732-2.252a.344.344 0 01-.307-.423c.264-1.109-.941-1.986-1.915-1.392a.344.344 0 01-.497-.161c-.438-1.052-1.929-1.053-2.367 0a.343.343 0 01-.497.161c-.974-.594-2.179.282-1.915 1.392a.344.344 0 01-.307.423c-1.136.092-1.598 1.509-.732 2.252.16.137.16.385 0 .522-.865.742-.406 2.16.732 2.252.21.017.356.217.307.423-.05.209-.047.418.002.613H2.163A1.225 1.225 0 01.94 23.268V4.937c0-.674.549-1.223 1.223-1.223H29.84c.674 0 1.223.549 1.223 1.223v18.331z"
      /><path
        d="M24.434 23.689c1.514 0 2.746-1.232 2.746-2.746s-1.232-2.746-2.746-2.746-2.746 1.232-2.746 2.746a2.75 2.75 0 002.746 2.746zm0-4.554c.997 0 1.808.811 1.808 1.808s-.811 1.808-1.808 1.808-1.808-.811-1.808-1.808.811-1.808 1.808-1.808z"
      /></symbol><symbol id="clock" viewBox="0 0 32 32"><path
        fill="none"
        stroke="var(--color3, #1e489b)"
        stroke-linejoin="round"
        stroke-linecap="round"
        stroke-width="3.2"
        d="M16 30.4c7.953 0 14.4-6.447 14.4-14.4S23.953 1.6 16 1.6 1.6 8.047 1.6 16 8.047 30.4 16 30.4z"
      /><path
        fill="none"
        stroke="var(--color3, #1e489b)"
        stroke-linejoin="round"
        stroke-linecap="round"
        stroke-width="3.2"
        d="M16 7.36V16l5.76 2.88"
      /></symbol><symbol id="company1" viewBox="0 0 102 32"><path
        d="M24.737.837c-3.8 0-6.881 3.084-6.881 6.888s3.081 6.888 6.881 6.888 6.881-3.084 6.881-6.888A6.885 6.885 0 0024.737.837zm0 11.329c-2.45 0-4.436-1.988-4.436-4.441s1.986-4.441 4.436-4.441 4.436 1.988 4.436 4.441a4.438 4.438 0 01-4.436 4.441zM101.24 16.776H32.507v.462h68.733v-.462zM32.492 19.938h1.026v3.782l4.024-3.782h1.352l-4.835 4.522 5.211 5.556h-1.34l-4.412-4.694v4.694h-1.026V19.938zM39.792 22.562h.958v3.48c0 .85.046 1.434.137 1.754.138.457.399.817.785 1.082s.846.398 1.381.398c.534 0 .988-.129 1.36-.387s.629-.597.771-1.018c.096-.287.144-.897.144-1.829v-3.48h.979v3.658c0 1.028-.12 1.802-.36 2.323s-.599.928-1.081 1.223c-.481.295-1.085.442-1.81.442s-1.331-.147-1.817-.442c-.486-.294-.848-.705-1.088-1.233s-.36-1.321-.36-2.381v-3.59zM48.085 22.562h.958v1.336c.383-.511.807-.894 1.273-1.148s.971-.38 1.519-.38c.556 0 1.05.142 1.482.425s.749.664.954 1.144c.206.479.308 1.226.308 2.24v3.837h-.958V26.46c0-.859-.036-1.432-.106-1.72-.111-.493-.324-.864-.639-1.113s-.725-.373-1.232-.373c-.579 0-1.099.192-1.557.575s-.761.858-.907 1.425c-.091.37-.137 1.046-.137 2.028v2.733h-.958v-7.454zM60.376 23.377l-.616.637c-.513-.498-1.013-.747-1.502-.747-.311 0-.578.103-.8.308s-.333.446-.333.72c0 .242.092.472.274.692.183.223.567.487 1.152.788.713.369 1.198.725 1.454 1.068.251.347.377.737.377 1.172 0 .612-.215 1.131-.645 1.555s-.966.637-1.61.637c-.43 0-.84-.093-1.23-.281a2.656 2.656 0 01-.97-.774l.602-.685c.489.553 1.009.829 1.557.829.384 0 .711-.123.981-.37s.405-.537.405-.87c0-.274-.089-.518-.267-.733-.178-.21-.581-.475-1.207-.795-.672-.347-1.129-.689-1.372-1.027s-.363-.724-.363-1.158c0-.566.193-1.037.579-1.412s.874-.562 1.464-.562c.685 0 1.375.336 2.07 1.007zM62.909 19.794h.958v2.768h1.519v.829h-1.519v6.625h-.958v-6.625h-1.307v-.829h1.307v-2.768zM70.567 23.377l-.616.637c-.512-.498-1.014-.747-1.503-.747-.311 0-.577.103-.799.308s-.332.446-.332.72c0 .242.091.472.274.692.183.223.567.487 1.151.788.714.369 1.199.725 1.454 1.068.251.347.378.737.378 1.172 0 .612-.215 1.131-.644 1.555s-.967.637-1.61.637c-.43 0-.84-.093-1.23-.281a2.656 2.656 0 01-.97-.774l.602-.685c.489.553 1.008.829 1.557.829.385 0 .711-.123.981-.37s.406-.537.406-.87c0-.274-.089-.518-.268-.733-.178-.21-.581-.475-1.207-.795-.672-.347-1.129-.689-1.372-1.027a1.946 1.946 0 01-.363-1.158c0-.566.193-1.037.579-1.412s.874-.562 1.464-.562c.685 0 1.375.336 2.07 1.007zM73.099 19.794h.959v2.768h1.519v.829h-1.519v6.625h-.959v-6.625h-1.307v-.829h1.307v-2.768zM80.187 22.37c1.147 0 2.099.416 2.852 1.247.685.758 1.028 1.655 1.028 2.692 0 1.041-.362 1.951-1.087 2.73s-1.656 1.168-2.794 1.168c-1.142 0-2.076-.39-2.8-1.168s-1.087-1.689-1.087-2.73c0-1.032.343-1.928 1.028-2.686.753-.835 1.707-1.254 2.858-1.254zm-.003.939c-.796 0-1.481.294-2.054.884s-.858 1.302-.858 2.137c0 .539.13 1.042.392 1.507.26.465.613.825 1.057 1.079s.932.38 1.463.38 1.019-.127 1.463-.38.796-.613 1.057-1.079c.262-.466.392-.969.392-1.507 0-.836-.287-1.548-.862-2.137s-1.258-.884-2.05-.884zM88.556 19.684v.939c-.351-.151-.653-.226-.903-.226-.187 0-.342.037-.465.113s-.201.162-.232.26c-.032.098-.049.36-.049.785l-.001 1.007h1.555v.829h-1.556l-.005 6.625h-.958v-6.624h-.98v-.829h.98v-1.165c0-.534.049-.916.147-1.144s.264-.412.5-.552c.236-.139.519-.209.852-.209.31 0 .681.064 1.115.192zM92.816 19.684v.939c-.351-.151-.652-.226-.903-.226-.188 0-.343.037-.465.113s-.201.162-.232.26c-.033.098-.049.36-.049.785l-.001 1.007h1.554v.829h-1.555l-.005 6.625h-.959v-6.624h-.979v-.829h.979v-1.165c0-.534.049-.916.147-1.144.099-.228.265-.412.5-.552s.519-.209.852-.209c.311 0 .682.064 1.116.192zM100.069 27.542l.807.425c-.265.521-.571.94-.918 1.261s-.737.563-1.172.729a4.07 4.07 0 01-1.473.25c-1.215 0-2.164-.398-2.849-1.196s-1.027-1.698-1.027-2.703c0-.945.289-1.788.869-2.528.735-.941 1.719-1.411 2.953-1.411 1.269 0 2.283.482 3.041 1.445.538.68.812 1.53.821 2.548h-6.7c.019.866.295 1.576.829 2.129.535.554 1.195.83 1.98.83.379 0 .748-.066 1.107-.198s.663-.307.915-.525c.251-.219.523-.571.815-1.058zm0-2.007c-.128-.511-.315-.92-.559-1.227s-.567-.552-.969-.74a2.968 2.968 0 00-1.267-.281c-.732 0-1.36.235-1.885.706-.383.342-.673.856-.87 1.541h5.551zM38.981 5.938l-1.502 1.506c-.61-.605-1.163-.908-1.661-.908-.272 0-.486.058-.64.174s-.231.26-.231.432c0 .131.049.251.146.361s.34.26.726.45l.89.446c.937.463 1.58.936 1.93 1.417s.525 1.046.525 1.693c0 .862-.316 1.58-.949 2.157s-1.48.864-2.543.864c-1.413 0-2.542-.553-3.384-1.66l1.495-1.633c.284.332.619.6 1.002.805s.722.306 1.019.306c.32 0 .578-.077.774-.231s.294-.333.294-.535c0-.374-.353-.739-1.059-1.095l-.819-.41c-1.567-.789-2.349-1.778-2.349-2.965 0-.766.295-1.42.885-1.964s1.345-.814 2.264-.814a3.917 3.917 0 013.186 1.604zM41.196 1h2.434v3.579h1.446V6.68H43.63v7.607h-2.434V6.68h-1.253V4.579h1.253V1zM56.082 10.136h-7.814c.113.689.414 1.237.904 1.644s1.115.61 1.875.61c.909 0 1.689-.318 2.343-.953l2.049.963c-.511.725-1.123 1.262-1.835 1.61-.713.347-1.559.521-2.539.521-1.521 0-2.759-.48-3.715-1.439s-1.434-2.162-1.434-3.605c0-1.48.477-2.708 1.43-3.686.954-.978 2.15-1.466 3.587-1.466 1.526 0 2.768.489 3.724 1.466s1.435 2.268 1.435 3.873l-.009.463zm-2.435-1.917c-.161-.54-.477-.979-.949-1.317s-1.02-.508-1.644-.508c-.677 0-1.271.19-1.782.57-.321.237-.618.656-.891 1.255h5.266zM57.601 4.579h2.434v.999c.551-.466 1.051-.789 1.499-.97s.906-.273 1.374-.273c.96 0 1.775.336 2.445 1.008.563.571.845 1.414.845 2.532v6.412h-2.404V10.04c0-1.157-.052-1.926-.156-2.305s-.284-.669-.542-.868c-.257-.199-.576-.299-.955-.299-.492 0-.914.165-1.266.494s-.597.785-.733 1.367c-.071.303-.107.959-.107 1.967v3.891h-2.434V4.58zM75.249.827h2.434v13.46h-2.434v-1.03c-.475.451-.951.776-1.428.975s-.995.299-1.553.299c-1.252 0-2.334-.485-3.248-1.458s-1.37-2.179-1.37-3.623c0-1.497.442-2.724 1.326-3.68s1.957-1.436 3.221-1.436a4.09 4.09 0 011.637.331c.509.22.982.551 1.415.993V.827zm-2.553 5.761c-.752 0-1.377.266-1.875.796s-.746 1.211-.746 2.041c0 .836.253 1.524.759 2.063s1.13.809 1.87.809c.764 0 1.398-.265 1.902-.796s.755-1.226.755-2.086c0-.842-.252-1.524-.755-2.046s-1.14-.783-1.911-.783zM84.244 4.334c.916 0 1.777.229 2.582.687s1.434 1.078 1.887 1.863a5 5 0 01.678 2.54c0 .915-.228 1.771-.682 2.567-.455.796-1.075 1.419-1.86 1.867s-1.649.673-2.594.673c-1.392 0-2.579-.495-3.564-1.484s-1.476-2.192-1.476-3.606c0-1.515.556-2.778 1.668-3.788.975-.879 2.096-1.319 3.362-1.319zm.038 2.294c-.757 0-1.386.263-1.889.789s-.754 1.198-.754 2.018c0 .843.247 1.526.745 2.049.497.523 1.127.784 1.889.784.761 0 1.396-.264 1.902-.793s.76-1.208.76-2.04c0-.832-.249-1.507-.746-2.027s-1.133-.78-1.907-.78zM90.807 4.579h2.088v1.225c.225-.481.526-.846.9-1.095s.783-.374 1.229-.374c.314 0 .644.084.988.25l-.758 2.096c-.286-.143-.521-.215-.704-.215-.375 0-.692.232-.95.696s-.388 1.373-.388 2.729l.008.473v3.924h-2.414V4.581zM96.419 4.579h.865c.006-1.272.027-2.025.063-2.257.065-.535.29-.959.675-1.271s.928-.469 1.631-.469c.508 0 1.079.116 1.716.347v1.854c-.353-.101-.642-.152-.869-.152-.287 0-.496.06-.628.179-.095.089-.143.274-.143.554l-.009 1.215h1.548v2.06H99.72v7.647h-2.435V6.639h-.865v-2.06zM17.806 19.239l12.157 12.18V20.112a13.385 13.385 0 01-5.225 1.057 13.35 13.35 0 01-6.932-1.929zM12.658 1.85H.45l12.782 12.806a13.4 13.4 0 01-1.922-6.931c0-2.106.485-4.1 1.348-5.875z"
      /><path
        d="M13.99 7.725a10.742 10.742 0 011.752-5.875h-1.718a12.183 12.183 0 00-1.501 5.875c.001 6.752 5.468 12.226 12.213 12.227 1.87 0 3.641-.423 5.225-1.175v-1.658a10.713 10.713 0 01-5.225 1.364C18.801 18.473 14 13.666 13.99 7.725zm10.747 8.098a8.105 8.105 0 01-8.091-8.098 8.095 8.095 0 012.531-5.875h-1.981a9.53 9.53 0 00-2.017 5.875c.001 5.284 4.279 9.567 9.557 9.567a9.5 9.5 0 005.225-1.558V13.9a8.064 8.064 0 01-5.225 1.923z"
      /></symbol><symbol id="company2" viewBox="0 0 88 32"><path
        d="M20.747 31.373l-.014-1.298c-.005-.531.005-1.061-.005-1.592-.005-.232.091-.323.313-.314.135.005.274 0 .409 0h65.884c.27-.005.332.043.332.314.01.902.01 1.799.01 2.701 0 .063-.014.125-.024.193-22.3-.005-44.604-.005-66.904-.005zM27.875 8.726c.289.125.525.207.732.328a2.673 2.673 0 011.328 1.944c.154.936.154 1.871-.164 2.783-.265.767-.78 1.312-1.502 1.669-.582.289-1.194.396-1.839.391-1.733-.01-3.466 0-5.198 0-.313 0-.351-.039-.351-.342V2.524c0-.304.039-.342.351-.342 1.555 0 3.114-.01 4.669.005.828.01 1.641.096 2.397.502.924.492 1.43 1.264 1.487 2.286.039.675.048 1.365-.173 2.026-.221.666-.635 1.158-1.266 1.471-.14.082-.279.154-.472.256zm-4.216 3.034s-.005 0 0 0c-.005.569-.005 1.138-.005 1.712 0 .183.077.289.27.285.496-.005.996.014 1.492-.01.712-.034 1.324-.294 1.588-1.003.135-.371.164-.801.149-1.201-.038-1.081-.78-1.756-1.858-1.751-.433 0-.866 0-1.3-.005-.279-.005-.337.048-.337.328v1.645zm1.189-7.467h-.939c-.178 0-.265.082-.26.265.01.314.01.627.01.941 0 .627-.005 1.254-.005 1.881 0 .169.01.333.245.333.554.005 1.107.029 1.661.01.549-.019.977-.251 1.237-.767.231-.458.183-.941.144-1.418-.053-.695-.674-1.322-1.42-1.249-.221.024-.448.005-.674.005zM17.006 13.771c-.101.183-.202.376-.313.56l-3.552 5.981c-.972 1.635-1.954 3.261-2.926 4.896-.433.724-.852 1.452-1.28 2.18-.12.207-.193.217-.313.014-.693-1.172-1.381-2.349-2.079-3.526-.621-1.052-1.251-2.093-1.868-3.145-.616-1.042-1.223-2.093-1.834-3.135-.703-1.196-1.405-2.392-2.123-3.579-.125-.207-.12-.367 0-.574.886-1.481 1.757-2.967 2.633-4.452.616-1.042 1.237-2.084 1.853-3.126l2.787-4.727c.197-.333.385-.666.582-.998.111-.183.221-.183.318-.019.679 1.143 1.357 2.291 2.041 3.434.813 1.365 1.622 2.73 2.435 4.095l2.975 4.978c.183.309.375.617.558.926.034.063.063.13.106.217zM8.771 3.019c-.087.111-.164.188-.221.28-.337.564-.664 1.134-1.001 1.703-.924 1.558-1.853 3.116-2.782 4.674-.746 1.259-1.492 2.523-2.248 3.782-.12.198-.14.367.005.555.048.063.087.135.13.203.862 1.457 1.728 2.913 2.589 4.37l2.599 4.394c.27.453.544.907.813 1.365.096.164.188.193.294.015.024-.043.053-.082.077-.121.963-1.64 1.925-3.28 2.893-4.915 1.054-1.79 2.108-3.584 3.153-5.378a.417.417 0 00.01-.347 851.287 851.287 0 00-3.206-5.402c-.987-1.664-1.973-3.323-2.965-4.988-.029-.058-.072-.101-.14-.188zM38.671 7.313V2.562c0-.352.024-.376.385-.376h2.022c.337 0 .38.039.38.367 0 2.595-.005 5.19 0 7.79 0 .314.029.622.043.936a5.453 5.453 0 01-.327 2.175c-.351.95-.948 1.703-1.882 2.156-.693.338-1.425.473-2.185.468-.606-.005-1.218.034-1.815-.125-1.227-.323-2.142-1.008-2.671-2.185-.303-.68-.414-1.399-.414-2.137V2.563c0-.352.034-.386.385-.381.674.005 1.348.005 2.022 0 .347 0 .366.014.366.362 0 2.933-.01 5.865.005 8.803.005.772.173 1.519.659 2.151.265.343.626.54 1.059.535.318-.005.64-.039.943-.125.52-.15.809-.545.895-1.061a8.33 8.33 0 00.13-1.288c.014-1.413.005-2.827 0-4.245zM52.476 12.117v3.087c0 .333-.029.343-.351.425-.948.246-1.916.41-2.893.468-1.107.068-2.219.063-3.278-.328-.919-.342-1.54-.979-1.872-1.929a14.059 14.059 0 01-.77-4.438c-.019-1.452.14-2.885.4-4.312.241-1.326 1.006-2.228 2.243-2.696 1.458-.55 2.951-.545 4.395.034 1.03.415 1.709 1.216 1.964 2.315.106.453.115.936.159 1.404.019.203-.063.299-.294.294a84.146 84.146 0 00-2.19-.005c-.39 0-.428-.034-.361-.41.077-.444.005-.859-.159-1.269-.193-.492-.611-.661-1.069-.757-.876-.193-1.434.289-1.824 1.032-.279.535-.279 1.124-.308 1.693a54.257 54.257 0 00-.082 3.541c.014.883.077 1.77.356 2.619.361 1.076 1.213 1.409 2.224 1.235.289-.048.573-.154.852-.241.188-.058.284-.183.279-.396-.01-.781-.01-1.558-.005-2.339 0-.314-.043-.362-.361-.357-.322 0-.64-.005-.963.01-.178.005-.25-.068-.25-.236V8.897c0-.164.077-.222.241-.222 1.218.005 2.44.005 3.658 0 .217 0 .255.106.255.285-.005.781 0 1.558 0 2.339.005.256.005.54.005.82zM59.595 2.185c.491 0 .977.01 1.468-.005.236-.005.351.092.414.309.207.757.424 1.515.64 2.272.337 1.172.679 2.344 1.011 3.516.328 1.158.641 2.32.973 3.478.337 1.187.688 2.373 1.035 3.56.149.521.144.526-.39.526-.698 0-1.396-.01-2.094.005-.255.005-.366-.068-.424-.333-.188-.839-.409-1.669-.606-2.503-.043-.183-.14-.241-.322-.241-1.141.01-2.277.005-3.417.005-.27 0-.356.068-.419.328-.193.81-.395 1.621-.587 2.436-.043.188-.144.27-.337.265-.732-.005-1.458 0-2.19-.005-.255 0-.284-.058-.217-.314.221-.815.438-1.63.659-2.441.193-.685.395-1.37.587-2.06.212-.767.419-1.534.626-2.301.337-1.23.679-2.46 1.02-3.69.236-.849.481-1.698.717-2.552.053-.198.154-.27.356-.265.501.019 1.001.01 1.497.01zm.009 2.914c-.034.005-.067.014-.096.019-.019.058-.048.116-.063.174-.082.357-.159.719-.246 1.08l-.996 3.965c-.082.333-.038.391.294.391h2.07c.236 0 .298-.077.246-.309a42.455 42.455 0 01-.168-.752c-.294-1.399-.587-2.793-.886-4.192-.034-.13-.106-.251-.154-.376zM77.596 10.168V4.862c0-.304-.048-.352-.346-.352-.852 0-1.699.005-2.551.005-.279 0-.337-.058-.337-.338V2.513c0-.275.053-.328.323-.328 2.879 0 5.757 0 8.635-.005.212 0 .308.087.304.304-.005.579-.005 1.158 0 1.736 0 .212-.092.304-.304.304-.833-.01-1.67-.01-2.503-.01-.337 0-.38.043-.38.371V15.473c0 .328-.048.376-.375.376-.712 0-1.429-.005-2.142 0-.294 0-.337-.034-.337-.323v-3.401c.01-.661.01-1.307.014-1.958zM70.27 10.173v5.306c0 .318-.038.362-.356.362h-2.141c-.289 0-.342-.048-.342-.338 0-3.521 0-7.042.005-10.564 0-.405-.024-.434-.438-.429-.818.005-1.636.005-2.455.005-.274 0-.323-.048-.323-.323 0-.564.005-1.124 0-1.688-.004-.217.068-.323.304-.323 2.873.005 5.742 0 8.616 0 .202 0 .294.087.294.289-.005.579 0 1.158 0 1.736 0 .246-.072.309-.317.309-.818 0-1.637 0-2.455-.005-.361 0-.385.024-.385.376-.005 1.765-.005 3.526-.005 5.287zM84.994 8.986V2.551c0-.323.048-.367.38-.367h2.142c.274 0 .327.048.327.323v13.019c0 .27-.048.318-.327.318h-2.142c-.328 0-.38-.043-.38-.371V8.985zM60.769 22.743c.005-.082.019-.169.019-.251-.005-1.027-.005-2.06-.014-3.087 0-.217.091-.309.308-.299.168.005.337 0 .505 0 .274.005.322.053.322.323v5.089c0 .28-.048.328-.318.333-.207.005-.419-.01-.626.005-.197.01-.322-.082-.409-.241-.611-1.1-1.223-2.204-1.839-3.299-.043-.072-.125-.121-.193-.183-.024.087-.072.169-.072.256-.005 1.027 0 2.06 0 3.087 0 .323-.053.376-.375.376-.178 0-.351-.005-.529.005-.188.01-.265-.082-.265-.256v-.699-4.462c0-.294.034-.328.332-.328.159 0 .322.019.481-.005.366-.058.568.106.736.42.544 1.027 1.117 2.04 1.675 3.058l.13.251c.038-.029.087-.063.13-.092zM74.91 21.981v-2.532c0-.304.048-.347.346-.342.828.005 1.651-.019 2.479.01.317.01.664.072.948.207.664.314.973 1.071.804 1.79-.077.338-.216.637-.515.839-.115.082-.178.188-.029.289.342.232.39.593.414.955.024.328.014.661.048.984.014.15.082.294.144.434.063.145.019.227-.126.232-.312.01-.626.01-.938-.005-.198-.01-.275-.154-.289-.328-.019-.342-.033-.69-.038-1.037-.005-.613-.236-.849-.843-.854-.312 0-.626-.005-.938 0-.289 0-.328.043-.328.338 0 .516.005 1.027.005 1.544 0 .289-.048.338-.333.338h-.481c-.284 0-.332-.048-.332-.338v-2.523zm2.031-.347c.193 0 .39.034.573-.01.212-.043.438-.116.607-.246.231-.178.25-.458.168-.728a.666.666 0 00-.611-.506 15.678 15.678 0 00-1.439-.024c-.063 0-.178.121-.178.193-.019.362-.009.724-.009 1.08 0 .169.096.241.26.241h.631zM40.144 21.976c.034-.68.13-1.336.51-1.915.395-.593.967-.916 1.656-1.052.813-.159 1.56-.01 2.238.458.51.352.789.863.929 1.447a4.45 4.45 0 01.01 2.103c-.202.834-.669 1.462-1.502 1.775-1.059.396-2.046.28-2.936-.434-.409-.328-.635-.786-.751-1.288-.077-.357-.106-.728-.154-1.095zm1.213.135c.058.236.111.617.241.974.202.55.645.844 1.218.873.582.034 1.054-.222 1.309-.762.39-.825.39-1.659-.029-2.474-.404-.781-1.487-.989-2.166-.328-.452.434-.52.994-.573 1.717zM48.572 25.025c-.683-.024-1.324-.135-1.848-.627-.318-.299-.448-.68-.515-1.09-.024-.15.063-.227.207-.232.25-.005.501-.019.746.005.087.01.221.101.241.183.135.54.544.704 1.011.728.294.015.602-.063.886-.159a.569.569 0 00.404-.55c-.005-.265-.193-.444-.433-.521-.395-.125-.804-.207-1.199-.338-.414-.135-.876-.222-1.223-.468-.929-.656-.674-2.315.385-2.764.813-.342 1.641-.352 2.445.015.554.251.876.714.972 1.317.043.26-.019.318-.279.323-.087 0-.178-.01-.265 0-.356.048-.597-.029-.741-.415-.067-.178-.337-.304-.539-.4-.366-.169-.982-.039-1.218.212-.313.338-.212.781.231.912.467.14.948.236 1.415.376.327.096.659.203.963.357.356.178.554.502.616.897.173 1.162-.443 1.944-1.579 2.146-.221.048-.457.063-.683.092zM84.96 19.101h.313c.366-.005.413.048.53.386.289.849.592 1.693.88 2.542.265.772.53 1.548.78 2.325.154.482.14.482-.375.487-1.011.01-.722.029-1.021-.815-.115-.333-.101-.352-.457-.352-.457 0-.915.005-1.372-.005-.211-.005-.351.048-.404.275-.048.203-.135.396-.193.598-.058.207-.178.309-.399.304a10.83 10.83 0 00-.698 0c-.202.005-.265-.082-.197-.27.303-.863.611-1.722.91-2.585.274-.786.539-1.577.813-2.368.043-.13.087-.261.164-.371a.343.343 0 01.222-.14c.168-.019.337-.005.505-.01 0 .005 0 0 0 0zm-.029 3.57c.154 0 .303.005.457 0 .149-.005.222-.082.173-.241-.101-.323-.202-.642-.299-.965-.062-.207-.11-.42-.183-.622-.024-.063-.106-.106-.169-.145-.009-.005-.082.048-.091.087-.169.55-.337 1.105-.501 1.659-.043.14.038.217.173.222.149.01.294.005.438.005zM55.965 24.851c-.679 0-.679 0-.837-.67-.014-.063-.034-.125-.048-.188-.063-.232-.188-.338-.448-.323-.462.024-.929.015-1.396 0-.202-.005-.318.077-.38.26-.072.212-.154.424-.207.642-.048.193-.159.27-.337.275-.25.005-.496.005-.746 0-.217-.005-.274-.087-.202-.294.274-.786.553-1.572.833-2.359.327-.931.655-1.862.972-2.793.077-.222.197-.328.443-.304.245.019.496.019.746 0 .236-.015.351.096.424.304a569.09 569.09 0 001.295 3.806c.149.439.322.868.472 1.307.091.27.034.338-.241.338h-.342zm-1.968-4.235c-.053.043-.091.058-.101.082-.193.588-.39 1.172-.568 1.761-.043.145.058.217.207.217.255-.005.515 0 .77-.005s.313-.087.236-.333c-.12-.381-.231-.767-.351-1.153-.053-.178-.12-.362-.193-.569zM28.294 19.101c.683 0 .693 0 .919.637.332.945.645 1.901.967 2.846.226.651.462 1.297.688 1.949.087.246.029.318-.236.318-.231 0-.467-.005-.698 0-.202.005-.327-.077-.371-.294s-.13-.429-.192-.646c-.053-.169-.159-.241-.342-.241-.515.005-1.025.005-1.54 0-.149 0-.241.053-.289.198-.087.26-.183.511-.27.772-.048.145-.135.207-.284.203-.231-.005-.467 0-.698 0-.284 0-.347-.087-.255-.357.183-.511.371-1.023.549-1.539.294-.834.578-1.664.866-2.499.12-.342.25-.675.361-1.018.077-.241.207-.367.477-.333.12.019.236.005.347.005zm.019 1.539c-.029.005-.058.01-.091.014-.188.598-.385 1.196-.563 1.799-.043.145.053.222.207.222.279 0 .558.005.842.005.188 0 .236-.106.183-.275-.135-.453-.27-.907-.409-1.355-.048-.14-.116-.275-.168-.41zM71.507 19.101c.712 0 .703.005.934.69a710.47 710.47 0 001.299 3.801c.11.328.236.646.346.974.072.207.01.285-.207.289-.255.005-.514 0-.77 0-.183 0-.289-.087-.332-.28-.048-.227-.135-.444-.198-.666-.048-.164-.154-.232-.323-.232-.52.005-1.044-.01-1.564.01a.377.377 0 00-.265.178 5.79 5.79 0 00-.274.743c-.058.188-.168.251-.356.246-.206-.01-.418 0-.626-.005-.312 0-.366-.087-.26-.386.255-.719.515-1.433.766-2.151.332-.945.659-1.891.991-2.836.12-.347.164-.376.539-.371.106 0 .202-.005.299-.005zm-.005 1.539c-.024 0-.048.005-.072.005-.043.14-.087.28-.135.415-.139.434-.284.868-.414 1.302-.067.222-.004.304.217.309.265.005.529.005.789.005.183 0 .25-.092.202-.261-.14-.477-.279-.95-.429-1.423-.034-.121-.101-.236-.159-.352zM23.471 23.23c.077-.14.154-.232.183-.338.274-.989.539-1.982.804-2.971.053-.203.111-.4.173-.598.048-.164.173-.222.332-.222.226 0 .448 0 .674.005.255.005.313.063.236.304-.207.651-.424 1.293-.64 1.939-.356 1.066-.717 2.127-1.064 3.193-.077.232-.202.323-.438.309-.192-.01-.39.029-.573-.01-.12-.024-.289-.116-.322-.222-.255-.699-.481-1.408-.717-2.118-.279-.854-.558-1.708-.842-2.561-.067-.198-.149-.391-.207-.588-.043-.15 0-.256.183-.256.289 0 .578-.01.866-.005.207.005.25.188.294.338.135.468.26.941.39 1.413.197.743.395 1.49.597 2.233-.005.043.024.072.072.154zM37.723 23.139c.077-.265.154-.535.226-.801.265-.96.525-1.92.794-2.88.087-.314.159-.357.472-.352.217.005.433 0 .65 0 .183 0 .245.077.183.26-.347 1.027-.683 2.055-1.025 3.082-.236.704-.477 1.413-.717 2.118-.072.207-.197.314-.433.289a3.533 3.533 0 00-.554 0c-.197.01-.313-.087-.375-.27-.241-.738-.481-1.481-.727-2.219-.284-.859-.573-1.722-.857-2.581-.053-.154-.106-.304-.154-.458-.043-.135-.005-.222.154-.227.289 0 .578-.005.866 0 .168 0 .26.101.303.256l.78 2.909c.058.217.111.434.183.646.029.087.096.164.149.246.029-.005.053-.014.082-.019zM66.391 22.492V20.49c0-.323-.038-.357-.361-.357-.346 0-.688 0-1.035.005-.212.005-.313-.077-.299-.299.009-.169-.005-.338.005-.506.009-.164.096-.241.265-.241 1.338.005 2.68.01 4.019.01.227 0 .328.096.317.318-.004.145-.009.289 0 .434.014.212-.091.289-.289.289-.351-.005-.708-.005-1.059-.005-.312 0-.366.048-.366.362v3.955c0 .352-.043.4-.404.396h-.481c-.265-.005-.317-.058-.317-.333 0-.675 0-1.351.004-2.026-.004 0-.004 0 0 0zM31.707 21.967v-2.508c0-.328.038-.362.351-.357.178.005.351 0 .529 0 .245.005.313.072.313.318-.005 1.307-.005 2.619-.01 3.926 0 .444.019.463.457.458h2.022c.279 0 .322.043.313.323 0 .096-.005.193 0 .289.005.4-.024.429-.409.429h-3.22c-.298 0-.342-.043-.342-.352-.005-.839-.005-1.683-.005-2.528zM80.44 21.971v-2.532c0-.28.053-.338.337-.338.178 0 .351 0 .53-.005.255-.005.323.053.328.323V24.503c0 .289-.058.347-.356.342h-.481c-.308 0-.356-.053-.356-.371v-2.503zM64.09 21.967v2.556c0 .289-.044.333-.333.328-.183-.005-.37-.005-.553 0-.207.005-.313-.082-.313-.299v-5.161c0-.203.097-.289.294-.289.227 0 .448-.005.674-.01.231-.005.227.164.227.318 0 .492 0 .979-.005 1.471.005.362.005.724.01 1.085-.005 0 0 0 0 0z"
      /><path
        d="M6.278 11.027c.241 0 .481-.019.722.01.106.01.25.092.294.178.246.521.472 1.056.698 1.587.193.449.375.902.568 1.351a.274.274 0 00.168.135c.034.01.106-.077.135-.135.443-.95.886-1.905 1.328-2.856.087-.183.217-.28.438-.275.409.014.818.005 1.227.005.27 0 .342.096.236.342-.26.622-.529 1.235-.789 1.857l-1.531 3.69c-.289.704-.578 1.409-.876 2.108-.019.043-.072.077-.111.116-.048-.048-.116-.087-.14-.145-.212-.482-.424-.97-.631-1.457-.525-1.235-1.044-2.47-1.569-3.7-.356-.839-.722-1.679-1.083-2.518-.087-.203-.019-.294.212-.294h.703z"
      /></symbol><symbol id="company3" viewBox="0 0 61 32"><path
        d="M61.333.005c-.171.762-.333 1.493-.499 2.229-.519 2.285-1.038 4.565-1.552 6.85-.72 3.183-1.441 6.361-2.156 9.544-.453 2.008-.907 4.015-1.35 6.023-.045.212-.126.262-.333.262-5.633-.005-11.27-.005-16.903-.005-12.52 0-25.039 0-37.559.005H.623c.086-.393.156-.752.237-1.11a6405.59 6405.59 0 001.869-8.318L4.533 7.46C5.072 5.069 5.611 2.683 6.14.292c.045-.207.116-.293.358-.293 18.177.005 36.355.005 54.537.005h.297zM22.807 1.231c-1.688 7.486-3.37 14.956-5.063 22.462h10.071c2.796 0 5.592 0 8.388.005.171 0 .272-.02.317-.217.584-2.653 1.179-5.301 1.773-7.95.947-4.202 1.899-8.404 2.852-12.61.126-.555.247-1.11.373-1.685-6.252-.005-12.469-.005-18.711-.005zm-1.234-.015H7.617c-.091 0-.186.01-.277 0-.136-.01-.191.05-.217.182-.045.247-.111.489-.166.736-.66 2.931-1.325 5.856-1.985 8.787L2.463 22.064c-.121.53-.237 1.059-.358 1.614h14.404c1.683-7.475 3.365-14.946 5.063-22.462zm33.11 22.451c1.683-7.491 3.355-14.951 5.038-22.441H42.718c-1.678 7.475-3.355 14.951-5.038 22.441h17.003zM19.472 29.095c-.176.318-.353.636-.524.958-.297.555-.589 1.11-.897 1.66a.401.401 0 01-.262.177c-.61.05-.615.04-.68-.565a475.89 475.89 0 01-.322-2.9c-.005-.03.005-.066.005-.136.186 0 .368-.01.549.005.045.005.111.096.116.151.071.767.136 1.538.207 2.305.01.101.03.207.096.313l.816-1.523c.191-.353.383-.706.559-1.069.076-.151.171-.197.333-.197.559.005.569-.005.625.545.071.691.126 1.387.186 2.083.005.055.015.111.03.247l.474-.893c.287-.55.579-1.1.846-1.659.111-.237.242-.363.514-.318.111.02.232.005.403.005l-.584 1.079c-.403.736-.801 1.473-1.204 2.209-.156.293-.579.454-.882.313-.045-.02-.076-.116-.081-.182-.086-.802-.166-1.604-.247-2.406-.005-.061-.015-.126-.02-.187l-.055-.015zM47.141 30.351c0-.984.448-1.705 1.285-2.023a1.993 1.993 0 011.36-.04c.605.197.937.636.982 1.266.071.863-.146 1.629-.912 2.124-.6.388-1.254.404-1.904.136-.559-.232-.811-.721-.811-1.463zm2.927-.459c0-.56-.217-.943-.574-1.084-.378-.151-.841-.03-1.169.318-.353.378-.484.842-.479 1.342.005.399.141.752.554.903.423.156.796.03 1.108-.267.378-.348.529-.792.559-1.211zM12.328 30.219c0-1.342 1.129-2.28 2.509-1.967.64.146 1.048.6 1.113 1.266.076.772-.091 1.473-.695 2.008-.559.494-1.547.605-2.197.252-.569-.308-.741-.827-.731-1.559zm2.932-.408c-.025-.424-.136-.802-.564-.989-.378-.166-.846-.045-1.169.293-.363.378-.499.852-.489 1.362.005.383.136.736.539.888.428.161.811.05 1.134-.262.363-.353.519-.797.549-1.291zM31.881 30.603c.005-1.735 1.174-2.678 2.564-2.34.453.111.776.383.957.817.338.807.04 1.992-.665 2.507-.625.459-1.32.52-2.025.232-.65-.262-.826-.827-.831-1.216zm2.927-.772c.01-.686-.408-1.135-1.003-1.074a1.13 1.13 0 00-.826.474 1.925 1.925 0 00-.358 1.453c.076.54.584.863 1.113.721.61-.166 1.063-.832 1.073-1.574zM25.2 30.27c-.131.696.227 1.15.937 1.15.368 0 .741-.091 1.123-.141-.005-.01.015.015.01.035-.126.615.035.504-.635.615-.247.04-.504.05-.751.04-.841-.045-1.305-.484-1.416-1.317-.141-1.044.464-2.098 1.385-2.361.282-.081.605-.101.892-.061.736.111 1.118.721 1.028 1.564-.045.449-.045.449-.494.449-.665 0-1.325 0-1.99.005-.03.005-.055.015-.091.02zm1.87-.55c.071-.499-.071-.792-.403-.918-.584-.222-1.3.282-1.355.918h1.758zM53.877 31.894c.141-.681.272-1.312.398-1.942.035-.161.071-.328.076-.494.015-.504-.338-.797-.836-.686-.499.106-.811.454-.962.908-.166.489-.257 1.004-.378 1.508-.02.081-.035.166-.05.247-.106.515-.181.56-.761.424l.242-1.195c.146-.721.292-1.443.433-2.169.03-.151.086-.222.247-.212.131.01.262 0 .418 0-.025.172-.045.303-.055.388.267-.136.544-.338.846-.414.272-.066.589-.035.862.04.494.131.766.636.67 1.231-.121.741-.287 1.478-.443 2.219-.01.061-.101.136-.161.141-.161.02-.332.005-.544.005zM41.932 28.282l-.509 2.502c-.06.287-.136.57-.171.863-.025.212-.111.272-.307.247-.106-.015-.217 0-.353 0 .02-.166.035-.303.055-.489-.378.439-.816.61-1.345.57-.695-.05-1.154-.575-1.048-1.261.121-.762.282-1.513.438-2.27.015-.066.111-.146.176-.156.156-.025.312-.005.524-.005-.071.358-.131.681-.196 1.004-.086.419-.176.837-.257 1.256-.126.651.307 1.039.932.837.574-.187.826-.666.967-1.195.141-.52.252-1.044.338-1.574.045-.262.141-.368.403-.328.106.015.207 0 .353 0zM.005 29.296c0-.429-.01-.772.01-1.115.005-.071.096-.151.166-.197 1.733-1.135 4.192-.989 5.784.338.987.822 1.647 1.841 1.809 3.148-.489-1.675-1.501-2.86-3.214-3.309-1.673-.439-3.219-.202-4.554 1.135zM8.57 28.847h-.836c.025-.161.025-.298.071-.414.025-.066.116-.136.181-.141.227-.015.453-.005.7-.005.065-.242.121-.474.186-.701.297-1.039 1.189-1.226 1.849-.963-.04.156-.076.313-.116.469-.846-.01-1.204.343-1.179 1.201h.897c-.03.171-.04.313-.081.444-.015.05-.101.106-.161.106a3.73 3.73 0 01-.579.005c-.186-.015-.262.055-.302.237-.176.842-.373 1.685-.539 2.532-.045.247-.146.323-.378.293-.106-.015-.212 0-.363 0 .217-1.039.428-2.033.65-3.062zM31.916 28.282c-.458.802-.882 1.544-1.3 2.285-.217.378-.438.752-.645 1.14-.081.146-.171.197-.338.192-.549-.01-.559 0-.645-.55a619.502 619.502 0 01-.479-3.067c.212 0 .403-.015.589.01.055.005.131.111.141.182.111.807.207 1.609.312 2.416.01.071.03.136.06.267l.816-1.478c.217-.388.438-.772.64-1.17.091-.177.197-.252.388-.227.131.015.267 0 .458 0zM43.307 28.842h-.746c0-.081-.005-.131 0-.177.04-.378.04-.378.418-.383.453 0 .453 0 .539-.429.096-.454.156-.504.801-.615-.065.343-.131.676-.207 1.044h.967c-.03.177-.035.323-.086.449-.02.05-.121.101-.191.101-.217.015-.438-.01-.655.015-.071.005-.176.096-.191.161a55.977 55.977 0 00-.378 1.821c-.091.464.116.666.584.595.091-.015.181-.035.267-.05.071.469-.02.585-.469.605-.091.005-.186.005-.277.005-.544-.015-.887-.419-.796-.958.106-.62.232-1.236.353-1.851.025-.106.04-.202.065-.333zM36.143 31.899c.081-.378.151-.721.222-1.064.282-1.327.564-2.653.836-3.985.04-.202.111-.293.322-.262.121.015.247.005.408.005-.096.454-.181.878-.272 1.301-.262 1.231-.529 2.456-.776 3.687-.05.262-.156.363-.413.323-.091-.015-.191-.005-.327-.005zM10.323 31.884c.378-1.776.746-3.521 1.118-5.281h.67c-.106.52-.212 1.024-.317 1.528-.242 1.14-.499 2.275-.72 3.42-.055.288-.161.388-.433.348-.096-.015-.196-.01-.317-.015zM46.572 28.282c-.156.752-.307 1.463-.453 2.174-.081.383-.176.767-.242 1.155-.035.212-.116.313-.338.282-.121-.015-.247-.005-.398-.005.141-.686.277-1.332.413-1.977.096-.449.201-.898.282-1.352.035-.212.111-.318.338-.282.121.02.242.005.398.005zM46.94 26.739c-.045.232-.076.429-.126.62-.015.05-.096.121-.146.121-.196.015-.398.005-.63.005.045-.232.076-.444.131-.651.01-.045.091-.096.141-.096.197-.005.398 0 .63 0z"
      /><path
        d="M18.344 22.87c.368-.636.705-1.236 1.048-1.826a1361.71 1361.71 0 012.64-4.575l4.247-7.37c1.31-2.275 2.625-4.55 3.93-6.825.096-.166.197-.237.393-.232.882.01 1.763.005 2.645.005h.277c.922 6.941 1.844 13.861 2.771 20.797-.076.01-.131.02-.191.02-.841 0-1.678 0-2.519.005-.171 0-.227-.05-.247-.222-.207-1.649-.433-3.294-.64-4.943-.02-.156-.081-.192-.222-.192-2.62 0-5.24.005-7.859-.005-.176 0-.267.071-.353.217-.947 1.649-1.904 3.299-2.852 4.953-.091.156-.186.222-.373.217-.796-.01-1.597-.005-2.393-.005-.081-.005-.166-.015-.302-.02zm13.925-8.328c-.383-2.895-.766-5.765-1.144-8.636l-.055-.015c-1.652 2.87-3.305 5.74-4.978 8.651h6.177zM8.595 11.657h9.381c-.151.666-.292 1.301-.438 1.937-.05.222-.116.439-.141.666-.03.247-.131.323-.388.323-2.721-.01-5.441-.005-8.162-.005-.212 0-.423.02-.63-.005-.252-.03-.328.076-.378.303-.448 2.033-.912 4.061-1.37 6.088-.131.58-.257 1.16-.403 1.74-.02.071-.116.177-.176.177-.897.01-1.799.005-2.695 0-.015 0-.03-.015-.076-.035.116-.504.227-1.014.343-1.528.69-3.042 1.375-6.083 2.066-9.125.741-3.279 1.486-6.557 2.217-9.836.045-.212.111-.303.353-.303 4.091.015 8.177.015 12.268.02h.212c-.222.968-.443 1.907-.665 2.875h-.307c-3.063 0-6.131.005-9.194-.005-.247 0-.343.066-.398.313-.453 2.073-.927 4.141-1.396 6.209-.005.055-.01.111-.02.192zM38.682 22.845c.207-.903.403-1.796.605-2.683.635-2.815 1.275-5.624 1.914-8.439.72-3.173 1.441-6.346 2.151-9.518.04-.187.116-.222.282-.222 2.519.005 5.038-.025 7.557.015 1.123.015 2.252.182 3.275.691 1.441.721 2.323 1.912 2.69 3.486.569 2.446-.297 4.404-2.071 6.033-1.169 1.074-2.524 1.821-4.076 2.189-.252.061-.509.091-.796.141 1.184 2.769 2.368 5.523 3.567 8.323-.131.005-.227.015-.322.015-.756 0-1.511-.01-2.267.005-.247.005-.368-.066-.464-.298-1.083-2.557-2.186-5.105-3.275-7.662-.111-.257-.227-.363-.524-.358-1.058.025-2.116.01-3.174.01h-.282c-.312 1.377-.615 2.734-.922 4.091-.302 1.332-.6 2.668-.897 4-.03.131-.06.212-.217.212-.867-.005-1.728-.005-2.595-.005-.05.005-.096-.01-.161-.025zm5.537-11.213h.343c1.763 0 3.527-.01 5.29.005 1.038.01 1.955-.282 2.781-.913.877-.671 1.567-1.428 1.652-2.603.081-1.13-.307-2.028-1.234-2.668-.584-.404-1.265-.525-1.965-.525-1.703-.01-3.411-.005-5.114-.01-.166 0-.227.056-.267.217-.322 1.448-.66 2.895-.992 4.338-.156.701-.317 1.402-.494 2.159z"
      /></symbol><symbol id="company4" viewBox="0 0 176 32"><path
        d="M169.114 31.414V16.527c0-1.914-1.126-3.066-3.186-3.066a7.21 7.21 0 00-2.618.47v17.484h-6.912V9.633a25.267 25.267 0 019.425-1.657c7.079 0 10.177 2.765 10.177 7.736v15.703h-6.886zM152.565 20.86l-14.078 1.879c.55 2.508 2.688 3.74 5.489 3.74 2.199.007 4.373-.47 6.372-1.4l1.929 5.193a22.265 22.265 0 01-8.841 1.657c-7.856 0-11.696-5.184-11.696-11.99 0-7.018 4.023-11.954 10.814-11.954 6.581 0 10.098 4.431 10.098 10.758.015.707-.015 1.414-.087 2.118zm-10.176-7.975c-2.436 0-4.321 1.701-4.364 5.485l7.968-1.019c0-2.871-1.387-4.44-3.604-4.44v-.026zm-15.388 7.638a140.914 140.914 0 01-3.674 10.873h-8.213a124.768 124.768 0 01-3.709-10.722c-1.073-3.607-2.007-8.977-2.81-12.716h7.183c.497 2.543 1.065 6.744 1.746 9.216s1.353 4.865 2.121 7.187a124.351 124.351 0 001.981-7.373c.602-2.543 1.1-6.682 1.484-9.03h6.729c-.847 3.704-1.798 9.021-2.837 12.566zM97.335 31.919c-7.122 0-10.639-2.658-10.639-7.568 0-6.079 6.11-7.488 12.944-7.869v-.886c0-1.825-1.257-2.658-3.605-2.658a18.436 18.436 0 00-6.406 1.382l-1.676-4.679a25.584 25.584 0 018.929-1.657c6.153 0 9.252 2.384 9.252 8.463v13.824c-1.711.886-5.193 1.648-8.798 1.648zm2.304-11.059c-3.727.177-6.537.603-6.537 3.323 0 1.87 1.554 2.889 4.024 2.889a8.949 8.949 0 002.514-.337V20.86zM81.921 7.975a6.52 6.52 0 00-4.364 2.047V7.984h-5.411v23.43h6.913V13.886a6.436 6.436 0 012.348-.381 7.557 7.557 0 012.549.425l1.213-5.698a20.063 20.063 0 00-3.247-.257zM67.415 31.813c-.79.133-1.591.195-2.391.186a8.938 8.938 0 01-2.226-.266 4.229 4.229 0 01-1.746-.886 4.24 4.24 0 01-1.161-1.772 7.83 7.83 0 01-.41-2.721V0h6.93v24.502c-.042.525.074 1.05.332 1.506.148.169.334.299.542.38s.433.108.654.081h1.239v4.945c-.58.166-1.168.299-1.763.399zm-21.017.106c-7.122 0-10.639-2.658-10.639-7.568 0-6.079 6.11-7.488 12.944-7.869v-.886c0-1.825-1.257-2.658-3.596-2.658a18.44 18.44 0 00-6.415 1.382l-1.676-4.679a25.63 25.63 0 018.929-1.657c6.11 0 9.252 2.384 9.252 8.463v13.824c-1.711.886-5.193 1.648-8.798 1.648zm2.304-11.059c-3.727.177-6.529.603-6.529 3.323 0 1.87 1.545 2.889 4.015 2.889a8.948 8.948 0 002.514-.346V20.86zm-17.508-.337a186.332 186.332 0 01-3.386 10.873h-7.925L16.75 18.68l-2.967 12.734H5.744A193.432 193.432 0 012.523 20.78C1.537 17.023.69 11.661.001 7.975H7.14c.41 2.596.873 6.788 1.379 9.181s1.065 4.768 1.667 7.089l3.413-16.27h6.982l3.491 16.314c1.213-4.909 2.191-11.52 2.933-16.314h6.686c-.655 3.686-1.51 9.003-2.496 12.548z"
      /></symbol><symbol id="company5" viewBox="0 0 61 32"><path
        d="M11.156.167H.293a.286.286 0 00-.218.097C.048.295.027.331.014.37S-.003.451.002.492V2.6a.293.293 0 00.291.292h3.653v13.524c0 .077.031.152.085.206s.129.085.206.085h3.039a.289.289 0 00.291-.291V2.86h3.653a.292.292 0 00.291-.292V.492a.36.36 0 00-.356-.325zM24.476.167H13.613a.286.286 0 00-.218.097c-.027.031-.048.067-.061.106s-.017.081-.012.122v15.891a.293.293 0 00.291.292h10.863a.291.291 0 00.324-.292v-2.076c.005-.044 0-.088-.014-.13a.285.285 0 00-.179-.18.3.3 0 00-.13-.014h-7.501V9.605h5.723c.044.005.088 0 .13-.014s.079-.038.11-.069c.031-.031.055-.069.069-.111s.019-.086.014-.13V7.173a.293.293 0 00-.324-.292h-5.723V2.86h7.501a.291.291 0 00.324-.292V.492c.032-.195-.129-.324-.323-.324zM50.438.167H39.575a.286.286 0 00-.218.097c-.027.031-.048.067-.061.106s-.017.081-.012.122v15.891a.293.293 0 00.291.292h10.863a.322.322 0 00.323-.292v-2.076a.323.323 0 00-.324-.324h-7.533V9.605h5.755c.044.005.088 0 .13-.014s.079-.038.11-.069c.031-.031.055-.069.069-.111s.019-.086.014-.13V7.173a.293.293 0 00-.324-.292h-5.755V2.86h7.533a.322.322 0 00.323-.292V.492c.032-.195-.162-.324-.323-.324zM61.01 9.345h-6.757a.289.289 0 00-.291.291v6.746c0 .077.031.152.085.206s.129.085.206.085h6.757a.289.289 0 00.291-.291V9.669a.326.326 0 00-.291-.325zM60.525 6.751h-5.787V.946h5.787v5.805zM61.01.167h-6.757a.286.286 0 00-.218.097c-.027.031-.048.067-.061.106s-.017.081-.012.122v6.713a.298.298 0 00.073.228.284.284 0 00.218.097h6.757a.286.286 0 00.218-.097.297.297 0 00.073-.228V.492a.298.298 0 00-.073-.228.284.284 0 00-.218-.097zM30.813 3.248a4.22 4.22 0 012.102-.551c1.287.018 2.563.237 3.783.649a.353.353 0 00.388-.227l.323-1.816a.423.423 0 00-.291-.552 14.663 14.663 0 00-4.203-.746 10.49 10.49 0 00-2.813.292c-2.069.519-3.362 2.076-3.847 4.508-.2 1.2-.298 2.415-.291 3.632-.004 1.206.093 2.41.291 3.6.485 2.432 1.778 3.989 3.847 4.508.92.224 1.866.322 2.813.292a14.828 14.828 0 004.203-.713.463.463 0 00.316-.405.452.452 0 00-.025-.179l-.388-1.751c-.032-.195-.194-.259-.388-.227a12.5 12.5 0 01-3.75.649 4.039 4.039 0 01-2.134-.551c-.776-.486-1.099-1.265-1.326-2.303a18.479 18.479 0 01-.226-2.886 17.79 17.79 0 01.194-2.757c.194-1.103.647-1.946 1.423-2.465zM3.752 23.356c-1.164 0-1.94.292-1.94 1.654v1.622c0 1.395.776 1.654 1.94 1.654.617-.01 1.233-.064 1.843-.162v.714c-.63.109-1.268.164-1.908.162-2.231 0-2.683-1.005-2.683-2.367v-1.459c0-1.459.323-2.497 2.813-2.497.647 0 1.326.13 1.778.162v.746a6.781 6.781 0 00-1.843-.227zM7.955 20.34h-.808v8.504h.808V20.34zM12.191 23.356c-1.293 0-1.94.389-1.94 1.686v1.524c0 1.362.776 1.686 1.94 1.686s1.972-.389 1.972-1.686v-1.524c0-1.33-.711-1.686-1.972-1.686zm0 5.61c-2.166 0-2.813-1.038-2.813-2.4v-1.524c0-1.33.517-2.432 2.813-2.432s2.813 1.103 2.813 2.432v1.524c0 1.362-.582 2.4-2.813 2.4zM16.103 27.929a5.76 5.76 0 001.811.324c1.002 0 1.681-.13 1.681-.908s-.388-.746-.873-1.005l-1.229-.616c-.873-.389-1.229-.778-1.229-1.622s.744-1.492 2.457-1.492c.49.019.977.084 1.455.195v.713a5.936 5.936 0 00-1.455-.162c-1.099 0-1.584.259-1.584.811s.259.649.679.876l1.358.649c.808.389 1.293.876 1.293 1.686S19.562 29 17.945 29a5.39 5.39 0 01-1.811-.292v-.778h-.032zM25.964 25.334v-.389c0-1.2-.614-1.589-1.649-1.589s-1.811.422-1.908 1.978h3.556zm-3.557.616c0 1.784.517 2.303 2.199 2.303a11.244 11.244 0 001.649-.13v.681c-.545.096-1.096.15-1.649.162-2.457 0-3.007-.973-3.007-3.146 0-2.692 1.035-3.211 2.748-3.211s2.425.519 2.425 2.432c0 .259 0 .551-.032.908h-4.332zM33.367 28.934h-.776c-2.037 0-1.972-1.589-1.972-1.978v-3.567h-.97v-.681h.97l.194-1.751h.647v1.751h1.843v.681H31.46v3.762c0 .519.129 1.103 1.261 1.103.217.009.435-.013.647-.065v.746zM37.085 23.356c-1.293 0-1.972.389-1.972 1.686v1.524c0 1.362.808 1.686 1.972 1.686s1.94-.389 1.94-1.686v-1.524c0-1.33-.711-1.686-1.94-1.686zm0 5.61c-2.166 0-2.813-1.038-2.813-2.4v-1.524c0-1.33.517-2.432 2.813-2.432s2.813 1.103 2.813 2.432v1.524c-.065 1.362-.647 2.4-2.813 2.4zM42.905 30.653c1.552-.097 2.166-.422 2.619-1.557l-2.522-6.357h.938l2.005 5.384 2.004-5.384h.938l-2.295 5.935c-.647 1.816-.938 2.595-3.621 2.757v-.778h-.065zM52.087 23.356c-1.293 0-1.94.389-1.94 1.686v1.524c0 1.362.776 1.686 1.94 1.686s1.94-.389 1.94-1.686v-1.524c0-1.33-.679-1.686-1.94-1.686zm0 5.61c-2.166 0-2.813-1.038-2.813-2.4v-1.524c0-1.33.517-2.432 2.813-2.432s2.813 1.103 2.813 2.432v1.524c-.032 1.362-.614 2.4-2.813 2.4zM57.066 22.74v3.827c0 1.232.259 1.686 1.714 1.686a7.37 7.37 0 001.746-.259V22.74h.808v6.13h-.582l-.097-.227A6.284 6.284 0 0158.78 29c-1.875 0-2.489-.486-2.489-2.367v-3.892h.776z"
      /></symbol><symbol id="company6" viewBox="0 0 116 32"><path
        d="M99.495 0H16.142C7.217 0 0 7.144 0 15.863c0 8.775 7.217 15.863 16.142 15.863h83.353c8.87 0 16.142-7.144 16.142-15.863S108.365 0 99.495 0zm0 29.645H16.142c-7.713 0-13.993-6.188-13.993-13.782S8.429 2.081 16.142 2.081h83.353c7.713 0 13.993 6.188 13.993 13.782s-6.281 13.782-13.993 13.782z"
      /><path
        d="M95.418 12.207c-1.157 0-2.148 2.25-2.148 5.963 0 1.125.33 1.631.991 1.631 1.212 0 2.148-2.081 2.148-5.682.055-1.294-.22-1.913-.991-1.913z"
      /><path
        d="M99.495 3.881H16.142c-6.721 0-12.175 5.4-12.175 11.982 0 6.638 5.454 11.982 12.175 11.982h83.353c6.721 0 12.175-5.4 12.175-11.982S106.216 3.881 99.495 3.881zM16.142 24.358c-4.738 0-8.594-3.825-8.594-8.494s3.856-8.494 8.594-8.494c4.738 0 8.594 3.825 8.594 8.494s-3.856 8.494-8.594 8.494zm25.507-12.432c-.386.169-.551.056-.661.506a38.373 38.373 0 00-.606 3.769c-.22 1.688-.276 2.7-.276 2.981 0 .394.055.563.276.731.275.169.606.225.606.675 0 .9-1.047 1.238-3.25 1.238-1.708 0-2.534-.338-2.534-1.013 0-.45.22-.619.661-.788.386-.169.441-.338.551-1.406l.11-.675c.055-.225.055-.338.055-.506 0-.45-.22-.506-.881-.506h-.826c-.606 0-.606.056-.716.788l-.055.844c-.055.45-.055.844-.055 1.181 0 .394.165.338.331.45.22.113.331.281.331.563 0 .844-.992 1.181-2.975 1.181-1.818 0-2.7-.281-2.7-1.069 0-.338.165-.563.331-.675.276-.169.606-.225.661-.506.11-.338.331-1.519.606-3.488.275-2.081.331-3.206.331-3.375 0-.338-.055-.394-.386-.506-.331-.169-.496-.394-.496-.731 0-.844 1.047-1.181 3.195-1.181 1.708 0 2.534.281 2.534 1.069 0 .394-.22.506-.551.675-.441.225-.441.45-.551 1.238l-.11.787c-.055.281-.055.45-.055.563 0 .281.276.281.992.281h.441c.992 0 .992-.056 1.102-.9l.11-.731c.055-.338.055-.563.055-.675 0-.281-.11-.338-.331-.506-.275-.169-.441-.338-.441-.675 0-.844.992-1.125 3.03-1.125 1.708 0 2.534.225 2.534 1.013-.11.169-.22.45-.386.506zm9.31 3.037c.496 0 .771-.113.881-.45.22-.563.22-1.069.826-1.069.661 0 .992.675.992 1.913 0 1.856-.551 2.981-1.377 2.981-.551 0-.661-.225-.661-.731-.055-.788-.055-.956-.881-.956-.606 0-.551.113-.606.731v1.801c0 .394.165.506.716.506h.772c.992 0 1.377-.113 1.928-.9.441-.675.661-1.125 1.157-1.125s.937.506.937 1.294c0 1.519-.937 2.925-1.708 2.925-.22 0-.771-.225-1.928-.225-3.14 0-5.123.169-5.895.169-.881 0-1.322-.394-1.322-1.013 0-.844.937-.9 1.212-1.294.165-.225.331-1.012.551-2.419.441-2.419.496-3.938.496-4.332 0-.45-.055-.562-.331-.731s-.551-.225-.551-.675c0-.9.496-1.181 1.598-1.181.771 0 1.983.113 3.636.113 1.102 0 1.818 0 2.148-.056s.606-.169.826-.169c.606 0 1.432 1.069 1.432 2.419 0 .788-.386 1.294-.937 1.294-.661 0-.771-.675-1.102-1.181-.165-.281-.716-.45-1.708-.45-.771 0-1.157.056-1.267.338-.165.394-.275 1.294-.275 1.913-.055.506.055.563.441.563zm20.494-2.869c-.22.056-.386.113-.441.281s-.22.844-.386 1.856c-.331 2.306-.496 4.219-.881 5.794-.331 1.294-.716 1.913-1.487 1.913-.496 0-.992-.281-1.377-.731-.716-.844-1.543-2.419-2.865-4.5l-.551-.9c-.11-.169-.165-.225-.276-.225s-.165.113-.22.338l-.165 1.069c-.165 1.012-.22 1.8-.22 2.194 0 .45.055.619.386.844.386.225.716.337.716.9 0 .619-.771.956-2.314.956-1.708 0-2.534-.337-2.534-1.069 0-.281.11-.45.386-.619.22-.169.661-.169.771-.45.11-.225.386-.956.606-2.194.496-2.7.606-4.332.606-4.613 0-.506-.11-.619-.551-.731-.496-.169-.716-.338-.716-.731 0-.844 1.047-1.125 3.195-1.125 1.377 0 1.983.787 3.14 2.588l1.047 1.631c.496.788.716 1.294.937 1.294.11 0 .22-.169.22-.45l.11-1.069c.055-.619.055-1.125.055-1.519 0-.45-.055-.563-.386-.675-.441-.169-.826-.225-.826-.788 0-.731.881-1.069 2.589-1.069 1.598 0 2.314.225 2.314 1.013-.11.45-.386.619-.881.788zm12.671 2.476c-.496 0-.881-.281-1.267-.9-.386-.675-.551-1.294-1.268-1.294-1.156 0-2.258 1.8-2.258 4.5 0 1.519.551 2.306 1.543 2.306.606 0 1.156-.338 1.763-.956s.881-1.181 1.432-1.181c.441 0 .826.45.826 1.238 0 .506-.165 1.012-.441 1.575-.385.619-.826.956-.991.956-.111 0-.22-.056-.276-.056-.165 0-.441.281-.937.563-.826.45-1.763.675-2.754.675-2.755 0-4.463-1.856-4.463-4.556 0-1.8.606-3.488 1.763-4.95 1.267-1.575 2.865-2.419 4.463-2.419 1.322 0 2.039.45 2.148.45s.22-.225.441-.225c.606 0 1.598 1.181 1.598 2.531 0 1.069-.606 1.744-1.322 1.744zm15.04 4.894c-1.268 1.688-3.14 2.531-5.344 2.531-3.085 0-4.793-1.688-4.793-4.782a7.24 7.24 0 011.597-4.5c1.322-1.688 3.251-2.644 5.399-2.644 2.865 0 4.683 1.744 4.683 4.613 0 1.8-.607 3.544-1.543 4.782z"
      /><path
        d="M16.142 8.832c-3.967 0-7.162 3.15-7.162 7.032s3.195 7.032 7.162 7.032 7.162-3.15 7.162-7.032-3.25-7.032-7.162-7.032z"
      /></symbol><symbol id="company7" viewBox="0 0 38 32"><path
        d="M0 18.079h38.069V32H0V18.079zM23.922 7.402c-.686 0-1.058.589-1.058 1.708 0 1.378.467 1.949 1.158 1.949.555-.006.839-.236 1.099-.565v-2.52c-.272-.371-.685-.571-1.2-.571zM17.173 7.273c-.644 0-1.046.524-1.111 1.195h2.322c-.053-.601-.414-1.195-1.211-1.195zM29.855 10.323c0 .471.272.889 1.028.889.579.006 1.046-.289 1.235-.607v-.842c-.307-.188-.609-.283-1.235-.283-.668 0-1.028.306-1.028.842z"
      /><path
        d="M0 0v16.665h38.069V0H0zm7.611 12.567H5.779l-2.435-6.69H5.3l.993 3.098c.165.512.349 1.148.426 1.466.077-.33.26-.942.425-1.466l.993-3.098h1.909l-2.435 6.69zm5.372 0h-1.832v-6.69h1.832v6.69zm-.922-7.703c-.845 0-1.548-.701-1.548-1.531 0-.836.703-1.531 1.548-1.531s1.548.701 1.548 1.531c0 .836-.703 1.531-1.548 1.531zm8.025 4.929h-4.048c.331 2.091 2.707 1.349 3.256.895l.03.006.272 1.343c-.431.33-1.194.671-2.169.671-1.944 0-3.185-1.366-3.185-3.48 0-2.049 1.3-3.492 3.014-3.492 1.814.006 2.854 1.584 2.854 3.498 0 .253-.012.436-.024.559zm2.571 5.406l-.278-1.466.018-.018c1.365 0 2.854.041 2.754-1.578-.337.294-.786.559-1.43.559-1.442 0-2.63-1.072-2.63-3.569 0-2.002.951-3.404 2.63-3.404.591 0 1.111.23 1.43.524l.006-.383h1.773l-.006 5.559c.1 3.227-1.873 3.816-4.267 3.775zm11.252-2.609h-1.761l-.018-.448c-.325.33-.886.589-1.519.589-1.265 0-2.523-.766-2.523-2.385 0-1.478 1.211-2.22 2.742-2.22.62 0 1.016.13 1.3.265v-.33c0-.766-1.011-1.407-3.008-.383l-.024-.006-.254-1.343c1.123-.724 5.064-1.337 5.064 1.861v4.399z"
      /></symbol><symbol id="company8" viewBox="0 0 166 32"><path
        d="M20.576.865c.022.178.077.355.077.544v23.608h-7.4V14.079H7.455v10.95H.044C.033 24.874 0 24.707 0 24.552V1.31c0-.144.022-.3.033-.444h7.4v10.051h5.821V8.454l.033-7.588h7.29zM156.759.865c.011.222.033.444.033.666v23.474h-6.649v-.643V1.198c0-.111-.011-.222-.011-.333h6.627zM165.484.865c.011.222.033.444.033.666v23.474h-6.649v-.643V1.198c0-.111-.011-.222-.011-.333h6.627zM125.634 7.443h3.126c-1.612 5.891-3.214 11.737-4.815 17.606-1.845 0-3.645.011-5.446-.022-.132 0-.331-.244-.386-.41a1955.48 1955.48 0 01-2.761-8.875c-.077-.244-.154-.488-.288-.876-.375 1.376-.717 2.596-1.048 3.816a581.3 581.3 0 00-1.602 5.869c-.099.366-.232.51-.629.499a183.018 183.018 0 00-4.915 0c-.353 0-.497-.111-.607-.455a6641.061 6641.061 0 00-4.827-15.82c-.055-.166-.11-.344-.221-.655-.133.288-.21.455-.276.632-2.419 5.946-4.827 11.893-7.245 17.839-.63 1.542-1.359 3.029-2.75 4.071-1.933 1.442-3.987 1.487-6.086.51-1.436-.666-2.099-2.241-1.701-3.772.486-1.941 3.093-2.84 4.694-1.631.95.721 1.226 2.418.574 3.406-.066.1-.144.2-.243.355.663.1 1.149-.122 1.546-.521.928-.899 1.458-2.03 1.745-3.273.044-.189-.033-.433-.11-.632a7896.07 7896.07 0 00-6.649-17.118c-.055-.155-.099-.311-.166-.51.199-.011.353-.033.508-.033 2.176 0 4.341.011 6.516-.011.376 0 .541.111.674.466.917 2.43 1.856 4.859 2.783 7.289.066.166.144.333.265.621 1.171-2.851 2.297-5.591 3.435-8.354h1.701c2.408 0 4.826.011 7.234-.011.431 0 .596.144.718.532.873 2.862 1.756 5.713 2.64 8.565.055.177.121.344.309.544.873-3.195 1.746-6.401 2.63-9.629 1.943 0 3.876-.011 5.798.022.134 0 .321.255.365.433.772 2.507 1.524 5.014 2.275 7.522.166.555.342 1.109.64 1.675.862-3.239 1.724-6.446 2.595-9.663zM44.72 25.005V7.444h6.881v2.163c.055.033.11.067.177.089.077-.122.144-.255.221-.366 1.933-2.463 5.887-2.995 8.416-1.808 1.778.832 2.783 2.252 2.805 4.227.044 4.304.011 8.609.011 12.924 0 .089-.022.178-.033.322h-6.759v-.721-10.927c0-.366-.022-.743-.055-1.109-.144-1.464-1.336-2.274-2.673-1.664-.729.333-1.325.965-1.933 1.509-.155.133-.166.477-.166.721-.011 3.827-.011 7.655-.011 11.482v.71c-2.286.011-4.562.011-6.881.011zM32.814 6.767c1.657.033 3.225.311 4.727.998 3.203 1.475 4.794 4.071 5.092 7.522.177 2.019-.121 3.994-1.104 5.802-1.502 2.751-3.91 4.171-6.98 4.504-1.977.222-3.954.189-5.821-.51-3.302-1.242-5.268-3.661-5.821-7.167-.276-1.731-.243-3.472.387-5.136 1.193-3.162 3.523-5.014 6.793-5.669.895-.189 1.822-.233 2.728-.344zm-2.419 9.596h-.099c0 1.076-.033 2.141.011 3.217.033 1.098.265 2.163.961 3.073.906 1.187 2.154 1.176 3.004-.055a4.98 4.98 0 00.895-2.807c.044-2.363.044-4.726-.022-7.089-.033-1.121-.342-2.197-1.149-3.04s-1.844-.81-2.573.1c-.574.721-.983 1.542-1.016 2.474-.044 1.365-.011 2.74-.011 4.127zM148.166 17.273h-12.359c0 1.342-.154 2.651.044 3.905.232 1.453 1.458 2.008 2.794 2.186a7.273 7.273 0 003.369-.366c1.369-.488 2.264-1.409 2.518-2.929h2.961c-.088 1.198-.476 2.219-1.359 3.006-1.745 1.531-3.777 2.374-6.086 2.574-2.342.2-4.639.111-6.781-.987-3.369-1.731-5.324-5.569-4.839-9.385.277-2.208.928-4.216 2.596-5.769 2.087-1.93 4.584-2.773 7.378-2.64 1.303.067 2.65.244 3.898.643 3.303 1.076 5.025 3.572 5.6 6.911.154.91.177 1.853.265 2.851zm-7.168-2.463c-.132-1.298-.199-2.54-.397-3.772-.121-.743-.564-1.376-1.204-1.786-1.038-.677-2.308-.233-3.005.998-.806 1.431-.585 2.995-.651 4.56h5.257z"
      /><path
        d="M72.763 17.273c0 1.309-.077 2.507.022 3.694.11 1.276 1.215 2.186 2.805 2.385 1.314.166 2.607.022 3.832-.533 1.049-.477 1.756-1.254 2.043-2.396.033-.155.221-.377.342-.377.884-.033 1.756-.022 2.695-.022-.11 1.231-.497 2.274-1.403 3.062-1.789 1.575-3.899 2.396-6.262 2.574-2.297.166-4.584.1-6.66-1.065-3.391-1.908-4.926-4.892-4.782-8.764.243-6.69 5.589-9.141 9.995-9.008 1.624.044 3.236.277 4.727.965 2.684 1.243 4.164 3.439 4.727 6.279.199 1.021.243 2.075.353 3.195-4.219.011-8.295.011-12.436.011zm5.202-2.452c-.077-1.12-.088-2.185-.254-3.228-.099-.61-.376-1.242-.729-1.753-.851-1.209-2.43-1.187-3.313-.011-1.138 1.509-.862 3.262-.928 4.992h5.224z"
      /></symbol><symbol id="pat" viewBox="0 0 38 32"><path
        fill="var(--color2, #fff)"
        d="M34.618 9.608H10.497v-1.25h.038c.627 0 1.137-.51 1.137-1.137V4.246h10.611c.951 0 1.724-.774 1.724-1.724S23.233.798 22.283.798H4.074a2.902 2.902 0 00-2.899 2.899v3.524c0 .627.51 1.137 1.137 1.137h.038v1.25h-.038A2.314 2.314 0 000 11.92v19.384c0 .303.246.55.55.55h10.573a.55.55 0 00.55-.55V18.381a2.978 2.978 0 012.975-2.975h14.723v1.213c0 .627.51 1.137 1.137 1.137h4.699c.627 0 1.137-.51 1.137-1.137v-1.213h.038c.627 0 1.137-.51 1.137-1.137v-1.762a2.902 2.902 0 00-2.899-2.899zM3.449 8.357h2.975a.55.55 0 000-1.1H2.312a.038.038 0 01-.038-.038V3.695c0-.993.808-1.8 1.8-1.8h18.209a.625.625 0 010 1.25h-11.16a.55.55 0 00-.55.55v3.524a.038.038 0 01-.038.038H8.773a.55.55 0 000 1.1h.625v1.25h-5.95v-1.25zm32.969 5.912a.038.038 0 01-.038.038h-2.937a.55.55 0 000 1.1h1.8v1.213a.038.038 0 01-.038.038h-4.699a.038.038 0 01-.038-.038v-1.213h.625a.55.55 0 100-1.1H14.646a4.08 4.08 0 00-4.074 4.074v12.373H1.098V11.92c0-.669.544-1.213 1.213-1.213h32.306c.993 0 1.8.808 1.8 1.8v1.762z"
      /><path
        fill="var(--color2, #fff)"
        d="M32.856 19.006a.55.55 0 00-.55.55v1.175a.55.55 0 001.1 0v-1.175a.55.55 0 00-.55-.55zM32.856 26.054a.55.55 0 00-.55.55v1.175a.55.55 0 001.1 0v-1.175a.55.55 0 00-.55-.55zM32.856 22.53a.55.55 0 00-.55.55v1.175a.55.55 0 101.1 0V23.08a.55.55 0 00-.55-.55zM32.856 29.579a.55.55 0 00-.55.55v1.175a.55.55 0 101.1 0v-1.175a.55.55 0 00-.55-.55zM35.372 21.272a.55.55 0 00.494-.6l-.113-1.169a.55.55 0 00-1.094.106l.113 1.169a.55.55 0 00.6.493zM36.053 28.288a.55.55 0 00.494-.6l-.113-1.169a.55.55 0 00-1.094.106l.113 1.169a.55.55 0 00.6.494zM35.712 24.78a.55.55 0 00.494-.6l-.113-1.169a.55.55 0 00-1.094.106l.113 1.169a.55.55 0 00.6.494zM36.773 30.026a.55.55 0 00-1.094.106l.113 1.169a.55.55 0 001.094-.107l-.113-1.169zM30.56 19.009a.55.55 0 00-.6.494l-.113 1.169a.55.55 0 001.094.106l.113-1.169a.55.55 0 00-.494-.6zM29.879 26.024a.55.55 0 00-.6.494l-.113 1.169a.55.55 0 001.094.106l.113-1.169a.55.55 0 00-.494-.6zM30.219 22.517a.55.55 0 00-.6.494l-.113 1.169a.55.55 0 001.094.106l.113-1.169a.55.55 0 00-.494-.6zM29.539 29.532a.55.55 0 00-.6.494l-.113 1.169a.55.55 0 001.094.106l.113-1.169a.55.55 0 00-.494-.6z"
      /></symbol><symbol id="deadline" viewBox="0 0 32 32"><path
        d="M23.904 18.965a.469.469 0 00-.469.469v2.185a1.428 1.428 0 101.817 1.817h1.15a.47.47 0 000-.939h-1.15a1.432 1.432 0 00-.878-.878v-2.185a.469.469 0 00-.469-.469zm0 4.49a.489.489 0 11.001-.977.489.489 0 01-.001.977zM14.883 26.028H1.892a.954.954 0 01-.953-.953V8.596H27.37v5.627a.469.469 0 00.938 0V5.25a1.894 1.894 0 00-1.892-1.892h-1.182v-.516c0-1.051-.855-1.906-1.906-1.906s-1.906.855-1.906 1.906v.516h-2.305v-.516c0-1.051-.855-1.906-1.906-1.906s-1.906.855-1.906 1.906v.516H13v-.516c0-1.051-.855-1.906-1.906-1.906s-1.906.855-1.906 1.906v.516H6.883v-.516c0-1.051-.855-1.906-1.906-1.906s-1.906.855-1.906 1.906v.516H1.889A1.894 1.894 0 00-.003 5.25v19.825c0 1.043.849 1.892 1.892 1.892H14.88a.469.469 0 000-.939zm7.48-23.185c0-.533.434-.967.967-.967s.967.434.967.967v1.97c0 .533-.434.967-.967.967s-.967-.434-.967-.967v-1.97zm-5.15-.967c.533 0 .967.434.967.967v1.97c0 .533-.434.967-.967.967s-.967-.434-.967-.967v-.984-.001-.985c0-.533.434-.967.967-.967zm-7.084.967c0-.533.434-.967.967-.967s.967.434.967.967v1.97c0 .533-.434.967-.967.967s-.967-.434-.967-.967v-1.97zm-6.116 0c0-.533.434-.967.967-.967s.967.434.967.967v1.97c0 .533-.434.967-.967.967s-.967-.434-.967-.967v-1.97zM.939 5.25c0-.525.427-.953.953-.953h1.182v.516c0 1.051.855 1.906 1.906 1.906s1.906-.855 1.906-1.906v-.516h2.305v.516c0 1.051.855 1.906 1.906 1.906s1.906-.855 1.906-1.906v-.516h2.305v.516c0 1.051.855 1.906 1.906 1.906s1.906-.855 1.906-1.906v-.516h2.305v.516c0 1.051.855 1.906 1.906 1.906s1.906-.855 1.906-1.906v-.516h1.182c.525 0 .953.427.953.953v2.407H.941V5.25z"
      /><path
        d="M7.345 11.553a.903.903 0 00-.902-.902H3.408a.903.903 0 00-.902.902v3.036c0 .498.405.902.902.902h3.035a.903.903 0 00.902-.902v-3.036zm-.939 2.999H3.444V11.59h2.962v2.962zM13.498 11.553a.903.903 0 00-.902-.902H9.56a.903.903 0 00-.902.902v3.036c0 .498.405.902.902.902h3.036a.903.903 0 00.902-.902v-3.036zm-.939 2.999H9.597V11.59h2.962v2.962zM6.443 18.413H3.408a.903.903 0 00-.902.902v3.036c0 .497.405.902.902.902h3.035a.903.903 0 00.902-.902v-3.036a.903.903 0 00-.902-.902zm-.037 3.901H3.444v-2.962h2.962v2.962zM12.596 18.413H9.56a.903.903 0 00-.902.902v3.036c0 .497.405.902.902.902h3.036a.903.903 0 00.902-.902v-3.036a.903.903 0 00-.902-.902zm-.037 3.901H9.597v-2.962h2.962v2.962zM30.578 18.39l.65-.65a1.328 1.328 0 000-1.879l-.489-.489a1.328 1.328 0 00-1.879 0l-.707.707a8.033 8.033 0 00-2.451-1.006v-.827c.561-.166.972-.685.972-1.299v-.465c0-.747-.608-1.355-1.355-1.355h-2.831c-.747 0-1.355.608-1.355 1.355v.465c0 .614.411 1.134.972 1.299v.827c-.88.2-1.706.545-2.451 1.006l-.631-.631a.904.904 0 00.627-.859v-3.036a.903.903 0 00-.902-.902h-3.036a.903.903 0 00-.902.902v3.036c0 .498.405.902.902.902h1.236l-.37.37a1.328 1.328 0 000 1.879l.65.65a8.05 8.05 0 00-1.421 4.577c0 4.464 3.632 8.096 8.096 8.096s8.096-3.632 8.096-8.096a8.046 8.046 0 00-1.422-4.577zm-1.054-2.354a.388.388 0 01.551 0l.489.489a.388.388 0 010 .551l-.567.567c-.324-.37-.68-.71-1.065-1.016l.591-.591zm-7.451-3.555c0-.229.186-.416.416-.416h2.831c.229 0 .416.187.416.416v.465a.416.416 0 01-.416.416h-2.831a.416.416 0 01-.416-.416v-.465zm.972 1.82h1.718v.615a8.123 8.123 0 00-1.718 0v-.615zM15.75 11.59h2.962v2.962H15.75V11.59zm1.494 5.486a.39.39 0 010-.552l.489-.489a.39.39 0 01.552 0l.591.591a8.185 8.185 0 00-1.065 1.016l-.566-.567zm6.66 13.048c-3.946 0-7.157-3.211-7.157-7.157s3.211-7.157 7.157-7.157 7.157 3.211 7.157 7.157-3.211 7.157-7.157 7.157z"
      /><path
        d="M23.904 16.845a6.131 6.131 0 00-6.008 4.94.47.47 0 10.922.18 5.19 5.19 0 015.086-4.182c2.858 0 5.183 2.325 5.183 5.183s-2.325 5.183-5.183 5.183a5.191 5.191 0 01-5.084-4.17.469.469 0 10-.921.183 6.133 6.133 0 006.005 4.927c3.376 0 6.122-2.746 6.122-6.122s-2.746-6.122-6.122-6.122z"
      /></symbol><symbol id="garanty" viewBox="0 0 26 32"><path
        fill="none"
        stroke="var(--color2, #fff)"
        stroke-linejoin="round"
        stroke-linecap="round"
        d="M13 26.48s8.16-4.032 8.16-10.08V7.424L13 4.4 4.84 7.424V16.4c0 6.048 8.16 10.08 8.16 10.08z"
      /><path
        fill="none"
        stroke="var(--color2, #fff)"
        stroke-linejoin="round"
        stroke-linecap="round"
        d="M10.6 14.96l1.92 1.92 3.84-3.84"
      /><path
        fill="none"
        stroke="var(--color2, #fff)"
        stroke-linejoin="round"
        stroke-linecap="round"
        d="M25 7.856V5.168L13 .56 1 5.168V15.92c0 9.216 12 15.36 12 15.36s12-6.144 12-15.36v-2.688"
      /></symbol><symbol id="hand" viewBox="0 0 31 32"><path
        fill="none"
        stroke="var(--color3, #1e489b)"
        stroke-linejoin="round"
        stroke-linecap="round"
        stroke-width="1.6"
        d="M8.518 30.933H4.047a2.98 2.98 0 01-2.981-2.987V17.493c0-.792.314-1.552.873-2.112s1.317-.875 2.108-.875h4.471M18.95 11.52V5.547c0-1.188-.471-2.328-1.31-3.168s-1.976-1.312-3.161-1.312l-5.961 13.44v16.427h16.811c.719.008 1.416-.244 1.964-.711s.909-1.116 1.017-1.828l2.057-13.44a2.998 2.998 0 00-.697-2.408 2.981 2.981 0 00-2.283-1.027h-8.435z"
      /></symbol><symbol id="instagram" viewBox="0 0 32 32"><path
        fill="var(--color2, #fff)"
        d="M16.005 7.784a8.21 8.21 0 00-8.211 8.211 8.21 8.21 0 008.211 8.211 8.21 8.21 0 008.211-8.211 8.21 8.21 0 00-8.211-8.211zm0 13.54c-2.945 0-5.329-2.385-5.329-5.329s2.385-5.329 5.329-5.329a5.328 5.328 0 015.329 5.329 5.327 5.327 0 01-5.329 5.329z"
      /><path
        fill="var(--color2, #fff)"
        d="M22.597.102c-2.944-.137-10.236-.131-13.183 0C6.825.223 4.541.849 2.699 2.69-.378 5.767.015 9.914.015 15.995c0 6.224-.347 10.275 2.684 13.305 3.089 3.088 7.296 2.684 13.305 2.684 6.165 0 8.293.004 10.473-.84 2.964-1.151 5.201-3.8 5.42-8.559.139-2.945.131-10.236 0-13.183-.264-5.617-3.279-9.024-9.301-9.301zm4.66 27.162c-2.017 2.017-4.816 1.837-11.291 1.837-6.667 0-9.34.099-11.291-1.857-2.247-2.236-1.84-5.827-1.84-11.271 0-7.367-.756-12.672 6.637-13.051 1.699-.06 2.199-.08 6.475-.08l.06.04c7.105 0 12.68-.744 13.015 6.648.076 1.687.093 2.193.093 6.463-.001 6.589.124 9.279-1.859 11.271z"
      /><path
        fill="var(--color2, #fff)"
        d="M24.541 9.379a1.919 1.919 0 100-3.838 1.919 1.919 0 000 3.838z"
      /></symbol><symbol id="keys" viewBox="0 0 32 32"><path
        d="M31.333 15.333c.373 0 .667.293.667.667s-.293.667-.667.667h-.667v-1.333h.667z"
      /><path d="M16.667 15.333h14v1.333h-14v-1.333z" /><path
        d="M28.667 32H16a.66.66 0 00.667-.667v-.667h12c1.107 0 2-.893 2-2v-12h.667a.66.66 0 00.667-.667v12.667a3.334 3.334 0 01-3.333 3.333z"
      /><path
        d="M32 3.333V16a.66.66 0 00-.667-.667h-.667v-12c0-1.107-.893-2-2-2h-12V.666a.66.66 0 00-.667-.667h12.667a3.334 3.334 0 013.333 3.333z"
      /><path
        d="M26.667 8c.373 0 .667.293.667.667s-.293.667-.667.667h-5.333c-.373 0-.667-.293-.667-.667S20.96 8 21.334 8h5.333zM26.667 21.333c.373 0 .667.293.667.667s-.293.667-.667.667h-5.333c-.373 0-.667-.293-.667-.667s.293-.667.667-.667h5.333zM26.667 25.333c.373 0 .667.293.667.667s-.293.667-.667.667h-5.333c-.373 0-.667-.293-.667-.667s.293-.667.667-.667h5.333zM16.667 30.667v.667c0 .373-.293.667-.667.667s-.667-.293-.667-.667v-.667h1.333zM15.333 16.667h1.333v14h-1.333v-14zM15.333 15.333h1.333v1.333h-1.333v-1.333zM15.333 1.333h1.333v14h-1.333v-14z"
      /><path
        d="M16.667.667v.667h-1.333V.667c0-.373.293-.667.667-.667s.667.293.667.667zM1.333 15.333h14v1.333h-14v-1.333zM10.667 8c.373 0 .667.293.667.667s-.293.667-.667.667h-2V8.001h2zM10.467 25.533a.644.644 0 010 .933c-.12.133-.293.2-.467.2s-.347-.066-.467-.2L8 24.933 8.933 24l1.533 1.533zM9.533 21.533a.644.644 0 01.933 0 .644.644 0 010 .933l-1.533 1.533L8 23.066l1.533-1.533zM7.063 23.999l.933-.933.933.933-.933.933-.933-.933zM8.667 9.333v2c0 .373-.293.667-.667.667s-.667-.293-.667-.667v-2h1.333zM7.333 8h1.333v1.333H7.333V8zM8.667 6v2H7.334V6c0-.373.293-.667.667-.667s.667.293.667.667z"
      /><path
        d="M8 23.067L7.067 24l-1.533-1.533a.644.644 0 010-.933.644.644 0 01.933 0L8 23.067zM7.333 8v1.333h-2c-.373 0-.667-.293-.667-.667s.293-.667.667-.667h2zM6.467 26.467c-.12.133-.293.2-.467.2s-.347-.066-.467-.2a.644.644 0 010-.933l1.533-1.533.933.933-1.533 1.533zM1.333 15.333v1.333H.666c-.373 0-.667-.293-.667-.667s.293-.667.667-.667h.667z"
      /><path
        d="M0 3.333A3.334 3.334 0 013.333 0H16a.66.66 0 00-.667.667v.667h-12c-1.107 0-2 .893-2 2v12H.666a.66.66 0 00-.667.667V3.334zM1.333 28.667c0 1.107.893 2 2 2h12v.667a.66.66 0 00.667.667H3.333A3.334 3.334 0 010 28.668V16.001a.66.66 0 00.667.667h.667v12z"
      /></symbol><symbol id="logo" viewBox="0 0 145 32"><path
        d="M34.583 23.408l-2.876-8.79h-4.264l4.264 11.013c.099.278.231.556.397.799s.364.486.595.66.529.347.859.452c.33.104.76.174 1.256.174s.925-.069 1.256-.174c.331-.104.628-.243.859-.452.231-.174.43-.417.595-.66s.297-.521.397-.799l4.264-11.013h-4.264l-2.876 8.79c-.033.104-.099.174-.132.209s-.066.07-.099.07-.066-.035-.099-.07c-.066-.035-.099-.104-.132-.209zm7.966 4.17h3.966V14.619h-3.966v12.959zm12.56-6.984c.231 0 .496 0 .727-.035s.43-.104.595-.313c.198-.243.33-.625.33-1.112 0-.174-.033-.347-.066-.521s-.132-.347-.297-.486-.364-.243-.562-.243c-.231-.035-.43-.035-.661-.035H52.96a.848.848 0 00-.364.07c-.099.07-.165.104-.198.209a1.726 1.726 0 00-.099.243c0 .069-.033.174-.033.243v2.015h2.843v-.035zm-6.842 6.984V17.051c0-.278.033-.556.099-.903s.198-.625.397-.869c.132-.174.33-.313.595-.452s.628-.209 1.025-.209h6.809c.496 0 .958.07 1.421.174.43.104.826.347 1.19.764.297.313.529.764.661 1.32.165.556.231 1.285.231 2.224 0 .208 0 .521-.033.869s-.066.73-.132 1.146c-.066.382-.198.764-.331 1.146s-.364.66-.595.903c-.297.243-.628.452-1.058.556-.397.104-.793.174-1.124.174h-5.189v3.752h-3.966v-.07zm17.551-3.232h.033v3.301h8.462c.198 0 .397-.035.628-.035s.43-.035.661-.104c.231-.069.43-.174.628-.313s.397-.347.562-.591c.264-.382.43-.834.496-1.285a9.55 9.55 0 00.099-1.286c0-.243 0-.486-.033-.73a3.31 3.31 0 00-.099-.799c-.066-.243-.132-.521-.264-.764s-.264-.452-.463-.66a2.444 2.444 0 00-.826-.591 4.139 4.139 0 00-.892-.347l-4.165-1.181c-.231-.069-.463-.139-.694-.243s-.331-.243-.331-.452c0-.139.066-.278.198-.347a.245.245 0 01.165-.07c.066-.035.231-.035.463-.035h6.28v-3.231h-8.131c-.529 0-.959.07-1.289.243s-.595.347-.793.556c-.364.382-.595.834-.661 1.285a9.624 9.624 0 00-.099 1.32c0 .486.033.973.099 1.494.099.521.264.973.562 1.39.132.174.297.347.529.556s.529.347.892.452l4.76 1.39c.198.07.364.139.529.209.165.104.231.243.231.452 0 .104-.066.208-.132.278-.066.104-.264.139-.562.139h-6.842zm17.452-2.397l1.157-3.266c0-.035.033-.104.066-.174 0-.07.033-.104.066-.104 0 0 .033.035.066.104 0 .069.033.139.066.174l1.124 3.266H83.27zm-1.553-5.906l-4.561 11.534h4.198l.959-2.675h4.429l.959 2.675h4.198l-4.561-11.534c-.132-.347-.297-.625-.529-.834-.198-.208-.43-.382-.661-.486s-.496-.174-.76-.208c-.264-.035-.562-.035-.859-.035-.496 0-.892.035-1.19.104s-.562.174-.793.313c-.198.139-.397.313-.496.486-.099.208-.231.417-.33.66zm23.996 9.346c0 .104-.033.313-.066.556s-.132.521-.331.764c-.165.243-.43.486-.793.695s-.859.313-1.52.313c-.232 0-.463 0-.694-.035s-.463-.07-.694-.174a1.816 1.816 0 01-.66-.382 2.36 2.36 0 01-.595-.695l-4.462-6.601c-.033-.069-.099-.139-.165-.208s-.132-.104-.165-.104-.066 0-.132.035-.099.139-.099.313v7.678h-3.074v-10.77c0-.417.066-.764.231-1.077.165-.278.364-.521.628-.695s.562-.313.892-.382a4.927 4.927 0 011.025-.104c.165 0 .364 0 .595.035s.463.069.694.139c.231.07.463.209.694.347.232.174.43.382.628.66l4.463 6.636c.033.069.099.139.165.208s.099.104.199.104c.099 0 .165-.035.165-.104.033-.069.033-.139.033-.208V14.62h3.074v10.77h-.033zm5.09 2.189V17.85h-4.396v-3.231h12.758v3.231h-4.396v9.728h-3.967zm11.139 0c-.264 0-.528-.035-.76-.07-.264-.035-.496-.174-.727-.382-.297-.243-.43-.486-.496-.764-.033-.278-.066-.556-.066-.869v-8.894c0-.243.033-.486.099-.764.066-.243.199-.486.43-.73.232-.208.496-.347.76-.417s.529-.104.727-.104h8.858v3.127h-6.082c-.132 0-.231 0-.33.035s-.199.069-.265.139a.42.42 0 00-.166.313c-.033.139-.033.243-.033.313v.973h6.71v2.814h-6.71v1.39c0 .139.033.243.067.313s.066.139.132.174.198.139.364.174h6.413v3.162h-8.925v.07zm22.543 0h-3.966v-5.142h-4.463v5.142h-3.966V14.619h3.966v4.586h4.463v-4.586h3.966v12.959zM12.54 0C10.662 5.866 0 15.675 0 20.547c0 5.965 5.599 10.77 12.54 10.804 6.941-.033 12.54-4.838 12.54-10.804C25.08 15.675 14.418 5.866 12.54 0zM6.337 20.779c.235-.199.402-.497.402-.862 0-.596-.469-1.094-1.039-1.094s-1.039.497-1.039 1.094c0 .597.469 1.094 1.039 1.094.101 0 .235-.033.335-.066l2.515 6.263c-2.85-1.127-5.164-3.447-5.164-6.661 0-1.69 4.661-7.622 5.767-9.047 1.039-1.326 2.246-2.883 3.386-4.54 1.14 1.624 2.347 3.181 3.387 4.54 1.106 1.458 5.767 7.357 5.767 9.047 0 3.181-2.28 5.501-5.097 6.628l2.515-6.164c.067.033.168.033.268.033.57 0 1.039-.497 1.039-1.094s-.469-1.094-1.039-1.094-1.039.497-1.039 1.094c0 .364.168.696.469.895l-4.527 4.54-1.542-6.164c.402-.133.704-.563.704-1.027 0-.597-.469-1.094-1.039-1.094s-1.039.497-1.039 1.094c0 .464.302.862.704 1.027l-1.509 5.733-4.225-4.176z"
      /></symbol><symbol id="mail" viewBox="0 0 32 32"><path
        fill="none"
        stroke="var(--color3, #1e489b)"
        stroke-linejoin="round"
        stroke-linecap="round"
        stroke-width=".8"
        d="M5.333 5.333h21.333c1.467 0 2.667 1.2 2.667 2.667v16c0 1.467-1.2 2.667-2.667 2.667H5.333A2.675 2.675 0 012.666 24V8c0-1.467 1.2-2.667 2.667-2.667z"
      /><path
        fill="none"
        stroke="var(--color3, #1e489b)"
        stroke-linejoin="round"
        stroke-linecap="round"
        stroke-width=".8"
        d="M29.333 8L16 17.333 2.667 8"
      /></symbol><symbol id="management" viewBox="0 0 32 32"><path
        d="M22.73 4.852a4.155 4.155 0 10.538 8.294 4.155 4.155 0 10-.538-8.295zm3.481 4.357a3.217 3.217 0 01-3.002 3.002 3.22 3.22 0 01-3.422-3.422 3.217 3.217 0 013.002-3.002 3.22 3.22 0 013.422 3.422z"
      /><path
        d="M30.155 6.791a.756.756 0 01-.532-1.293c.348-.348.539-.81.539-1.301s-.191-.954-.539-1.301l-.542-.542c-.715-.715-1.85-.705-2.583.023a.756.756 0 01-1.291-.538c0-1.014-.825-1.84-1.84-1.84h-.736c-1.015 0-1.84.825-1.84 1.84a.757.757 0 01-1.293.536c-.348-.348-.81-.539-1.301-.539s-.954.191-1.301.539l-.52.52a1.84 1.84 0 00-.347.483 4.409 4.409 0 00-2.314-.653H9.623c-.926 0-1.753.587-2.058 1.461a.155.155 0 01-.149.101A2.196 2.196 0 005.223 6.48a.469.469 0 00.938 0c0-.692.563-1.256 1.256-1.256.466 0 .881-.293 1.034-.73a1.243 1.243 0 011.173-.832h4.092c1.93 0 3.499 1.57 3.499 3.499v2.535c-.726.204-.823.476-1.377.505V8.078a1.957 1.957 0 00-1.955-1.955h-.018c-.803 0-1.13.334-2.085.334h-.184c-.945 0-1.289-.334-2.085-.334h-.018a1.957 1.957 0 00-1.955 1.955v1.827c-.444-.188-.986-.259-1.377-.285v-.924a.469.469 0 00-.938 0v1.131a1.404 1.404 0 00-.508 1.083v1.044c0 .75.588 1.365 1.327 1.409.141 1.358.774 2.603 1.777 3.467.152.131.307.252.466.366v1.971a.372.372 0 01-.324.368c-1.373.178-3.881.569-5.258 1.181a4.56 4.56 0 00-2.702 4.16v4.661a2.463 2.463 0 002.46 2.46h18.452a2.463 2.463 0 002.46-2.46v-1.583a.469.469 0 00-.938 0v1.583c0 .839-.683 1.522-1.522 1.522h-1.204v-2.556a.469.469 0 00-.938 0v2.556h-4.872l-.865-6.393.439-.617a1.327 1.327 0 001.217-.276l2.107-1.809c.353-.303.518-.75.452-1.199 1.081.195 2.279.467 3.041.806a3.62 3.62 0 012.146 3.304v.887a.469.469 0 00.938 0v-.887a4.557 4.557 0 00-2.702-4.16c-1.376-.613-3.885-1.003-5.258-1.181a.372.372 0 01-.324-.368v-1.971c.158-.114.314-.235.466-.366a5.076 5.076 0 001.138-1.412l.202.202a1.839 1.839 0 002.602 0 .756.756 0 011.293.536c0 1.015.825 1.84 1.84 1.84h.736c1.015 0 1.84-.825 1.84-1.84a.757.757 0 011.293-.536c.348.348.81.539 1.301.539s.954-.191 1.301-.539l.521-.521a1.843 1.843 0 000-2.602.756.756 0 01.532-1.293c1.034-.004 1.843-.799 1.843-1.81v-.796c0-1.011-.81-1.806-1.843-1.81zM12.303 24.08h-1.232l-.359-.505.975-.702.975.702-.359.505zm-2.517-.993a.396.396 0 01-.491-.021l-2.107-1.809c-.18-.154-.139-.354-.123-.412s.088-.245.318-.282c.197-.029.376-.054.532-.075l2.932 1.834-1.061.764zM.939 29.54v-4.661c0-1.427.842-2.724 2.146-3.304.762-.339 1.96-.611 3.041-.806-.066.449.099.896.452 1.199l2.107 1.809a1.335 1.335 0 001.217.276l.439.617-.865 6.393H4.604v-2.556a.469.469 0 00-.938 0v2.556H2.462A1.524 1.524 0 01.94 29.541zm9.482 1.523l.818-6.045h.896l.818 6.045h-2.532zm5.888-10.217a.391.391 0 01-.123.412l-2.107 1.809a.397.397 0 01-.491.021l-1.061-.764 2.932-1.834c.156.021.336.046.532.075a.393.393 0 01.318.282zm-1.85-.837l-2.772 1.734-2.772-1.734c.192-.229.307-.522.307-.839v-1.418a5.712 5.712 0 004.931 0v1.418c0 .317.115.61.307.839zm.485-3.887c-1.935 1.666-4.578 1.667-6.513 0-.913-.786-1.452-1.964-1.479-3.232a.469.469 0 00-.469-.459h-.356a.474.474 0 01-.474-.474v-1.044a.47.47 0 01.176-.366c.539.012 1.326.121 1.559.351a.637.637 0 001.087-.453V8.081c0-.561.456-1.017 1.017-1.017.862.063 1.063.334 2.103.334h.184c1.076 0 1.483-.334 2.085-.334h.018c.561 0 1.017.456 1.017 1.017v2.193c0 .479.39.869.871.869.887 0 1.127-.412 1.806-.569a.472.472 0 01.145.34v1.044a.474.474 0 01-.474.474h-.356a.47.47 0 00-.469.459c-.027 1.268-.566 2.446-1.479 3.232zm16.117-6.725c0 .487-.399.871-.909.873-1.508.006-2.257 1.828-1.192 2.893a.903.903 0 010 1.276l-.52.521c-.17.17-.397.264-.638.264s-.468-.094-.638-.264c-1.067-1.067-2.893-.313-2.893 1.198a.903.903 0 01-.902.902h-.736a.903.903 0 01-.902-.902c0-1.51-1.825-2.267-2.893-1.198a.901.901 0 01-1.276 0l-.466-.466a5.52 5.52 0 00.239-1.128 1.413 1.413 0 001.327-1.409v-1.044c0-.425-.189-.819-.508-1.083V7.163a4.425 4.425 0 00-1.349-3.182.89.89 0 01.237-.422l.521-.521c.17-.17.397-.264.638-.264s.468.094.638.264c1.067 1.067 2.893.313 2.893-1.198 0-.498.405-.902.902-.902h.736c.498 0 .902.405.902.902 0 1.508 1.82 2.264 2.889 1.203.362-.359.916-.371 1.26-.026l.542.542c.17.17.264.397.264.638s-.094.468-.264.638c-1.067 1.067-.314 2.888 1.192 2.893.51.002.909.385.909.873v.796z"
      /></symbol><symbol id="monitor" viewBox="0 0 32 32"><path
        fill="none"
        stroke="var(--color3, #1e489b)"
        stroke-linejoin="round"
        stroke-linecap="round"
        stroke-width=".8"
        d="M26.667 4H5.334a2.667 2.667 0 00-2.667 2.667V20a2.667 2.667 0 002.667 2.667h21.333A2.667 2.667 0 0029.334 20V6.667A2.667 2.667 0 0026.667 4zM10.667 28h10.667M16 22.667V28"
      /></symbol><symbol id="phone" viewBox="0 0 32 32"><path
        fill="none"
        stroke="var(--color3, #1e489b)"
        stroke-linejoin="round"
        stroke-linecap="round"
        stroke-width=".8"
        d="M29.333 22.56v4a2.655 2.655 0 01-1.812 2.537 2.672 2.672 0 01-1.094.13 26.398 26.398 0 01-11.507-4.093 25.988 25.988 0 01-8-8 26.382 26.382 0 01-4.093-11.56 2.657 2.657 0 01.687-2.038 2.656 2.656 0 011.967-.868h4a2.67 2.67 0 012.667 2.294 17.16 17.16 0 00.933 3.747 2.675 2.675 0 01-.6 2.814l-1.693 1.693a21.333 21.333 0 008 8l1.693-1.693a2.669 2.669 0 012.813-.6c1.21.451 2.467.765 3.747.933a2.665 2.665 0 012.293 2.707z"
      /></symbol><symbol id="pipe" viewBox="0 0 32 32"><path
        d="M4.417 16.447l1.182-1.183c.425-.426-.237-1.089-.663-.663l-1.182 1.183c-.419.42.234 1.092.663.663z"
      /><path
        d="M31.795 9.008a1.95 1.95 0 00-2.59-.86l-4.954 2.487V8.431c0-.704-.572-1.277-1.276-1.277h-.15c.032-.108.05-2.557.05-2.557 0-.631-.492-1.147-1.112-1.19V.468a.469.469 0 00-.469-.469h-6.797a.469.469 0 00-.469.469v2.938a1.194 1.194 0 00-1.122 1.19s.018 2.448.05 2.557h-.248c-.704 0-1.276.573-1.276 1.277v3.979h-.773c-.778 0-1.411.633-1.411 1.411v.991H7.894a4.058 4.058 0 00-4.941-2.634c-.58.163-.327 1.066.253.903a3.118 3.118 0 013.955 3.001 3.118 3.118 0 01-3.113 3.116 3.118 3.118 0 01-2.526-4.938c.352-.488-.408-1.037-.76-.548a4.057 4.057 0 003.287 6.424 4.056 4.056 0 003.846-2.785h1.354v.991c0 .778.633 1.411 1.411 1.411h.773v3.849c0 .704.572 1.277 1.276 1.277.065-.016.156 0 .223 0a1.205 1.205 0 00-.026.247v2.215c0 .634.497 1.153 1.122 1.19v3.001c0 .259.21.469.469.469h6.797c.259 0 .469-.21.469-.469v-3.002a1.195 1.195 0 001.112-1.19v-2.215c0-.085-.009-.167-.026-.247h.126c.703 0 1.276-.573 1.276-1.277v-1.739c0-.602-.938-.603-.938 0V23.6a.34.34 0 01-.338.339H12.71a.338.338 0 01-.338-.339V8.43a.34.34 0 01.338-.339h10.265c.187 0 .338.152.338.339v2.674l-3.494 1.754a.464.464 0 00-.168-.161 3.878 3.878 0 00-1.899-.497c-2.138 0-3.877 1.74-3.877 3.88s1.739 3.88 3.877 3.88a3.864 3.864 0 003.857-3.484.467.467 0 00-.019-.187l1.723-.865v3.625c0 .602.938.603.938 0v-4.095l6.684-3.355a1.933 1.933 0 00.86-2.591zM13.845 27.34v-2.215c0-.119.081-.218.191-.247h1.76v2.719h-1.694a.257.257 0 01-.257-.257zm2.888.256v-2.719h2.317v2.719h-2.317zm4.093 3.467h-5.86v-2.466h5.86v2.466zm1.112-5.938v2.215a.257.257 0 01-.257.256h-1.694v-2.719h1.76c.11.029.191.128.191.247zM8.087 16.413c.009-.11.015-.22.015-.332s-.006-.222-.015-.332h1.164v.664H8.087zm2.575 2.402a.474.474 0 01-.473-.474v-4.52c0-.261.212-.474.473-.474h.773v5.467h-.773zM19.05 4.341v2.728h-2.317V4.341h2.317zm2.888.256v2.215a.258.258 0 01-.257.257h-1.694V4.341h1.694c.141 0 .257.115.257.256zM14.967.938h5.86v2.466h-5.86V.938zm-1.122 3.659c0-.141.115-.256.257-.256h1.694v2.728h-1.694a.257.257 0 01-.257-.257V4.597zm3.908 14.426c-1.621 0-2.939-1.32-2.939-2.942a2.944 2.944 0 014.03-2.732l-1.948.978a.469.469 0 00-.128.095 1.932 1.932 0 00.984 3.59c.412 0 .793-.13 1.107-.351l1.748-.878a2.929 2.929 0 01-2.855 2.24zm.614-2.164l-.162.081a.434.434 0 00-.099.068.988.988 0 01-1.345-.927c0-.548.445-.993.992-.993a.994.994 0 01.615 1.771zm12.148-6.098l-10.837 5.44a1.93 1.93 0 00-.914-1.763l10.862-5.452c1.151-.578 2.025 1.205.889 1.776z"
      /><path
        d="M29.97 9.463c-.603 0-.604.938 0 .938.603 0 .604-.938 0-.938z"
      /></symbol><symbol id="plumber" viewBox="0 0 32 32"><path
        d="M17.531 4.969h-3.063c-1.973 0-1.977 3.063 0 3.063h3.063c1.973 0 1.977-3.063 0-3.063zm0 2.125h-3.063c-.764 0-.765-1.188 0-1.188h3.063c.764 0 .765 1.188 0 1.188z"
      /><path
        d="M27.219 25.188h-.481a6.652 6.652 0 00-5.424-6.14 8.023 8.023 0 002.642-4.921 2.065 2.065 0 001.716-2.033c0-.993-.705-1.824-1.641-2.019V8.031C24.031 3.603 20.428 0 16 0S7.969 3.603 7.969 8.031v2.044a2.065 2.065 0 00-1.641 2.019c0 1.019.742 1.866 1.714 2.033.106.78.326 1.536.657 2.257.251.547 1.104.156.852-.392a7.037 7.037 0 01-.645-2.96V11.76a3.303 3.303 0 002.375 1.007h9.438c.931 0 1.773-.386 2.375-1.007v1.272A7.102 7.102 0 0116 20.126a7.12 7.12 0 01-5.189-2.257c-.41-.44-1.097.198-.686.639.177.19.363.37.557.541a6.653 6.653 0 00-5.42 6.139h-.481a.469.469 0 00-.469.469v1.687c0 .259.21.469.469.469h.469v3.719c0 .259.21.469.469.469h12.969c.602 0 .603-.938 0-.938H16.5V23.5h2.906a.468.468 0 00.45-.337l.948-3.245a5.713 5.713 0 014.995 5.27h-3.08a.469.469 0 00-.469.469v5.406h-.688c-.602 0-.603.938 0 .938h4.719c.259 0 .469-.21.469-.469v-3.719h.469c.259 0 .469-.21.469-.469v-1.687a.469.469 0 00-.469-.469zm-2.485-13.094c0 .472-.292.876-.704 1.043l.001-.105v-1.98c.412.167.703.571.703 1.042zm-17.468 0c0-.471.291-.875.703-1.042v1.98l.001.105a1.127 1.127 0 01-.705-1.043zm13.453-.266h-9.438a2.38 2.38 0 01-2.329-1.906h14.095a2.378 2.378 0 01-2.329 1.906zM8.906 8.984v-.953C8.906 4.119 12.088.937 16 .937s7.094 3.182 7.094 7.094v.953H8.906zm9.151 11.811l-2.042 1.625-2.031-1.616a8.013 8.013 0 004.073-.009zm-3.368 1.768h-1.713l-.519-1.776 2.232 1.776zm-3.463-2.649l.949 3.249c.058.2.242.337.45.337h2.906v7.563H9.75v-5.406a.469.469 0 00-.469-.469h-3.08a5.715 5.715 0 015.025-5.274zM5.25 26.125h3.562v.75H5.249v-.75zm.938 4.938v-3.25h2.625v3.25H6.188zm12.867-8.5h-1.713l2.232-1.776-.519 1.776zm7.695 4.312h-3.563v-.75h3.563v.75zm-.938 4.188h-2.625v-3.25h2.625v3.25z"
      /><path
        d="M20.469 26.188h-2.25a.469.469 0 000 .938h2.25a.469.469 0 000-.938z"
      /></symbol><symbol id="reward" viewBox="0 0 32 32"><path
        d="M29.965 24.094c-.563-.827-1.516-1.03-2.55-.543l-7.212 3.176v-.022a.904.904 0 00-.002-.052 2.75 2.75 0 00-2.358-2.458l-.012-.002-4.795-.552c-1.013-.144-1.511-.483-2.45-1.032a9.088 9.088 0 00-4.582-1.242h-.299v-.485c0-.714-.581-1.295-1.295-1.295H3.006c-.714 0-1.295.581-1.295 1.295v8.966c0 .714.581 1.295 1.295 1.295H4.41c.689 0 1.252-.541 1.291-1.22l4.694 1.747a5.217 5.217 0 001.829.329h6.468c.991 0 1.958-.279 2.797-.808l8.088-4.563c.566-.32 1.062-1.544.389-2.535zm-.897 1.745l-8.051 4.542-.021.012a4.296 4.296 0 01-2.305.669h-6.468c-.514 0-1.02-.091-1.502-.271l-5.017-1.867v-3.401a.469.469 0 00-.938 0v4.324c0 .197-.16.358-.358.358H3.004a.358.358 0 01-.358-.358v-8.966c0-.197.16-.358.358-.358h1.404c.197 0 .358.161.358.358v2.45a.469.469 0 00.938 0v-1.027h.299c1.443 0 2.863.385 4.109 1.113.995.581 1.599.983 2.798 1.152l.012.002 4.795.552a1.818 1.818 0 011.549 1.597l-.003.26c-2.786-.032-3.846.093-5.628-.167l-.83-.121a.47.47 0 00-.136.928l.83.121c1.894.277 2.986.142 6.227.177a.477.477 0 00.189-.04l7.885-3.472.011-.005c.425-.201 1.009-.326 1.38.22a.956.956 0 01-.122 1.218z"
      /><path
        d="M7.515 10.846c.378.304.515.813.339 1.266a2.048 2.048 0 001.595 2.763c.316.049.584.228.753.481l-2.195 4.256c-.132.256-.104.555.073.782s.461.326.741.26l2.394-.564.929 2.277a.72.72 0 00.642.452l.034.001a.722.722 0 00.646-.394l2.054-3.983c.318.076.645.077.964 0l2.054 3.983a.722.722 0 00.646.394l.034-.001a.722.722 0 00.642-.452l.929-2.277 2.394.564c.28.066.564-.034.741-.26s.205-.526.073-.782l-2.195-4.256c.168-.253.437-.432.753-.481a2.047 2.047 0 001.595-2.763 1.107 1.107 0 01.339-1.266 2.048 2.048 0 000-3.191 1.106 1.106 0 01-.339-1.266 2.048 2.048 0 00-1.595-2.763 1.108 1.108 0 01-.927-.927 2.047 2.047 0 00-2.763-1.595 1.107 1.107 0 01-1.266-.339 2.048 2.048 0 00-3.191 0 1.108 1.108 0 01-1.266.339 2.048 2.048 0 00-2.763 1.595c-.075.48-.447.852-.927.927a2.047 2.047 0 00-1.595 2.763c.175.453.039.962-.339 1.266a2.048 2.048 0 000 3.191zm5.325 10.747l-.825-2.022a.725.725 0 00-.841-.434l-2.126.501 1.595-3.093a2.05 2.05 0 002.495.854 1.106 1.106 0 011.266.339c.084.104.177.198.277.283l-1.843 3.573zm7.988-2.456a.725.725 0 00-.841.434l-.825 2.022-1.843-3.573c.1-.084.193-.178.277-.283a1.108 1.108 0 011.266-.339 2.049 2.049 0 002.495-.854l1.595 3.093-2.126-.501zM8.103 8.385c.698-.561.949-1.5.626-2.335a1.11 1.11 0 01.865-1.498 2.04 2.04 0 001.709-1.709 1.11 1.11 0 011.498-.865 2.041 2.041 0 002.335-.626 1.11 1.11 0 011.73 0c.561.697 1.5.949 2.335.626a1.11 1.11 0 011.498.865 2.039 2.039 0 001.709 1.709 1.11 1.11 0 01.865 1.498 2.041 2.041 0 00.626 2.335 1.11 1.11 0 010 1.73 2.041 2.041 0 00-.626 2.335 1.11 1.11 0 01-.865 1.498 2.039 2.039 0 00-1.709 1.709 1.11 1.11 0 01-1.498.865 2.041 2.041 0 00-2.335.626 1.11 1.11 0 01-1.73 0 2.042 2.042 0 00-2.335-.626 1.11 1.11 0 01-1.498-.865 2.039 2.039 0 00-1.709-1.709 1.11 1.11 0 01-.865-1.498 2.041 2.041 0 00-.626-2.335 1.11 1.11 0 010-1.73z"
      /><path
        d="M10.094 9.885a.47.47 0 00-.375.547 6.391 6.391 0 0012.673-1.181A6.391 6.391 0 009.719 8.069a.469.469 0 00.921.173 5.453 5.453 0 015.361-4.444c3.007 0 5.454 2.447 5.454 5.454s-2.447 5.454-5.454 5.454a5.453 5.453 0 01-5.361-4.444.47.47 0 00-.547-.375z"
      /><path
        d="M19.453 7.508l-2.085-.092-.732-1.954c-.22-.586-1.05-.586-1.269 0l-.732 1.954-2.085.092c-.624.028-.882.817-.392 1.207l1.633 1.3-.556 2.012c-.167.603.505 1.091 1.027.746l1.741-1.151 1.741 1.151c.52.344 1.194-.141 1.027-.746l-.556-2.012 1.633-1.3c.49-.39.233-1.18-.392-1.207zm-1.959 1.881a.678.678 0 00-.231.711l.417 1.508-1.306-.863a.677.677 0 00-.748.001l-1.306.863.417-1.508a.676.676 0 00-.231-.711l-1.224-.975 1.564-.069a.675.675 0 00.604-.439l.549-1.466.549 1.466a.676.676 0 00.605.439l1.564.069-1.224.975z"
      /></symbol><symbol id="skrepka" viewBox="0 0 31 32"><path
        fill="none"
        stroke="var(--color3, #1e489b)"
        stroke-linejoin="round"
        stroke-linecap="square"
        stroke-width="2.087"
        d="M28.436 14.834L15.65 27.62A8.353 8.353 0 013.838 15.808L16.624 3.022a5.57 5.57 0 017.874 0 5.57 5.57 0 010 7.874l-12.8 12.786a2.784 2.784 0 01-3.938-3.938L19.572 7.946"
      /></symbol><symbol id="star" viewBox="0 0 34 32"><path
        fill="var(--color4, #ffde67)"
        d="M16.572.602a.739.739 0 011.318 0l4.492 8.885a.74.74 0 00.555.398l10.016 1.429a.738.738 0 01.405 1.266l-7.224 6.87a.741.741 0 00-.219.663l1.708 9.722a.739.739 0 01-1.065.785l-8.99-4.616a.738.738 0 00-.675 0l-8.99 4.616a.739.739 0 01-1.065-.785l1.708-9.722a.739.739 0 00-.218-.663l-7.224-6.87a.738.738 0 01.405-1.266l10.016-1.429a.74.74 0 00.555-.398L16.572.602z"
      /></symbol><symbol id="stick" viewBox="0 0 34 32"><path
        fill="none"
        stroke="var(--color3, #1e489b)"
        stroke-linejoin="round"
        stroke-linecap="round"
        stroke-width="3.2"
        d="M30.326 18.74L19.555 29.511a3.003 3.003 0 01-4.252 0L2.399 16.622V1.6h15.022l12.904 12.904a3.002 3.002 0 010 4.236v0zM9.911 9.111h.015"
      /></symbol><symbol id="Vector-8" viewBox="0 0 125 32"><path
        fill="none"
        stroke="var(--color5, #dcdcdc)"
        stroke-width="4.364"
        d="M1.455 2.182c17.333 12.848 66.182 35.636 122.909 24"
      /></symbol><symbol id="Vector-10" viewBox="0 0 128 32"><path
        fill="none"
        stroke="var(--color5, #dcdcdc)"
        stroke-width="4.465"
        d="M1.488 30.075C19.224 16.928 69.209-6.39 127.255 5.517"
      /></symbol><symbol id="vk" viewBox="0 0 32 32"><path
        fill="var(--color2, #fff)"
        d="M31.715 23.156c-.086-.144-.618-1.3-3.178-3.676-2.68-2.488-2.32-2.084.908-6.386 1.966-2.62 2.752-4.22 2.506-4.904-.234-.652-1.68-.48-1.68-.48l-4.808.028s-.356-.048-.622.11c-.258.156-.424.516-.424.516s-.762 2.028-1.778 3.752c-2.142 3.638-3 3.83-3.35 3.604-.814-.526-.61-2.116-.61-3.244 0-3.526.534-4.996-1.042-5.376-.524-.126-.908-.21-2.246-.224-1.716-.018-3.17.006-3.992.408-.548.268-.97.866-.712.9.318.042 1.038.194 1.42.714.494.67.476 2.178.476 2.178s.284 4.15-.662 4.666c-.65.354-1.54-.368-3.45-3.67-.978-1.69-1.718-3.56-1.718-3.56s-.142-.348-.396-.534c-.308-.226-.74-.298-.74-.298l-4.572.028s-.686.02-.938.318c-.224.266-.018.814-.018.814s3.58 8.375 7.633 12.597c3.718 3.87 7.939 3.616 7.939 3.616h1.912s.578-.064.872-.382c.272-.292.262-.84.262-.84s-.038-2.566 1.154-2.944c1.174-.372 2.682 2.48 4.28 3.578 1.208.83 2.126.648 2.126.648l4.274-.06s2.236-.138 1.176-1.896z"
      /></symbol><symbol id="waves" viewBox="0 0 75 32"><path
        fill="none"
        stroke="var(--color5, #dcdcdc)"
        stroke-linejoin="round"
        stroke-width=".701"
        d="M.234 8.613l7.514-4.571a11.68 11.68 0 0112.139 0l1.445.879a11.68 11.68 0 0012.139 0l1.445-.879a11.68 11.68 0 0112.139 0l1.445.879a11.68 11.68 0 0012.139 0l1.445-.879a11.68 11.68 0 0112.139 0l1.445.879a11.68 11.68 0 0012.139 0l1.445-.879a11.68 11.68 0 0112.139 0l1.445.879a11.68 11.68 0 0012.139 0l1.445-.879a11.68 11.68 0 0112.139 0l1.445.879a11.68 11.68 0 0012.139 0l1.445-.879a11.68 11.68 0 0112.139 0l1.445.879a11.68 11.68 0 0012.139 0l1.445-.879a11.68 11.68 0 0112.139 0l1.446.879a11.677 11.677 0 0012.138 0l1.446-.879a11.68 11.68 0 0112.139 0l1.445.879a11.68 11.68 0 0012.139 0l1.445-.879a11.68 11.68 0 0112.139 0l1.445.879a11.68 11.68 0 0012.139 0L258.33.35M.234 20.131l7.514-4.571a11.68 11.68 0 0112.139 0l1.445.879a11.68 11.68 0 0012.139 0l1.445-.879a11.68 11.68 0 0112.139 0l1.445.879a11.68 11.68 0 0012.139 0l1.445-.879a11.68 11.68 0 0112.139 0l1.445.879a11.68 11.68 0 0012.139 0l1.445-.879a11.68 11.68 0 0112.139 0l1.445.879a11.68 11.68 0 0012.139 0l1.445-.879a11.68 11.68 0 0112.139 0l1.445.879a11.68 11.68 0 0012.139 0l1.445-.879a11.68 11.68 0 0112.139 0l1.445.879a11.68 11.68 0 0012.139 0l1.445-.879a11.68 11.68 0 0112.139 0l1.446.879a11.677 11.677 0 0012.138 0l1.446-.879a11.68 11.68 0 0112.139 0l1.445.879a11.68 11.68 0 0012.139 0l1.445-.879a11.68 11.68 0 0112.139 0l1.445.879a11.68 11.68 0 0012.139 0l7.514-4.571M.234 31.65l7.514-4.571a11.68 11.68 0 0112.139 0l1.445.879a11.68 11.68 0 0012.139 0l1.445-.879a11.68 11.68 0 0112.139 0l1.445.879a11.68 11.68 0 0012.139 0l1.445-.879a11.68 11.68 0 0112.139 0l1.445.879a11.68 11.68 0 0012.139 0l1.445-.879a11.68 11.68 0 0112.139 0l1.445.879a11.68 11.68 0 0012.139 0l1.445-.879a11.68 11.68 0 0112.139 0l1.445.879a11.68 11.68 0 0012.139 0l1.445-.879a11.68 11.68 0 0112.139 0l1.445.879a11.68 11.68 0 0012.139 0l1.445-.879a11.68 11.68 0 0112.139 0l1.446.879a11.677 11.677 0 0012.138 0l1.446-.879a11.68 11.68 0 0112.139 0l1.445.879a11.68 11.68 0 0012.139 0l1.445-.879a11.68 11.68 0 0112.139 0l1.445.879a11.68 11.68 0 0012.139 0l7.514-4.571"
      /></symbol><symbol id="youtube" viewBox="0 0 32 32"><path
        fill="var(--color2, #fff)"
        d="M30.366 8.501a3.759 3.759 0 00-2.644-2.644c-2.348-.642-11.738-.642-11.738-.642s-9.39 0-11.738.618a3.837 3.837 0 00-2.644 2.669c-.618 2.347-.618 7.216-.618 7.216s0 4.893.618 7.216a3.759 3.759 0 002.644 2.644c2.372.642 11.738.642 11.738.642s9.39 0 11.738-.618a3.759 3.759 0 002.644-2.644c.618-2.348.618-7.216.618-7.216s.025-4.893-.618-7.24zM12.994 20.215V11.22l7.809 4.497-7.809 4.497z"
      /></symbol></defs></svg>
