<svg width="1440" height="274" viewBox="0 0 1440 274" fill="none" xmlns="http://www.w3.org/2000/svg">
<path d="M-21 73.7519L43.3421 34.6129C75.2673 15.193 115.356 15.193 147.282 34.6129L159.654 42.139C191.579 61.5589 231.668 61.5589 263.593 42.139L275.966 34.6129C307.891 15.193 347.98 15.193 379.905 34.6129L392.278 42.139C424.203 61.5589 464.292 61.5589 496.217 42.139L508.589 34.6129C540.514 15.193 580.604 15.193 612.529 34.6129L624.901 42.139C656.826 61.5589 696.915 61.5589 728.841 42.139L741.213 34.6129C773.138 15.193 813.227 15.193 845.152 34.6129L857.525 42.139C889.45 61.5589 929.539 61.5589 961.464 42.139L973.837 34.6129C1005.76 15.193 1045.85 15.193 1077.78 34.6129L1090.15 42.139C1122.07 61.5589 1162.16 61.5589 1194.09 42.139L1206.46 34.6129C1238.39 15.193 1278.47 15.193 1310.4 34.6129L1322.77 42.139C1354.7 61.5589 1394.79 61.5589 1426.71 42.139L1439.08 34.6129C1471.01 15.193 1511.1 15.193 1543.02 34.6129L1555.4 42.139C1587.32 61.5589 1627.41 61.5589 1659.33 42.139L1671.71 34.6129C1703.63 15.193 1743.72 15.193 1775.65 34.6129L1788.02 42.139C1819.94 61.5589 1860.03 61.5589 1891.96 42.139L1904.33 34.6129C1936.26 15.193 1976.35 15.193 2008.27 34.6129L2020.64 42.139C2052.57 61.5589 2092.66 61.5589 2124.58 42.139L2188.92 3" stroke="#DCDCDC" stroke-width="6" stroke-linejoin="round" stroke-dasharray="4 12"/>
<path d="M-21 172.376L43.3421 133.237C75.2673 113.817 115.356 113.817 147.282 133.237L159.654 140.763C191.579 160.183 231.668 160.183 263.593 140.763L275.966 133.237C307.891 113.817 347.98 113.817 379.905 133.237L392.278 140.763C424.203 160.183 464.292 160.183 496.217 140.763L508.589 133.237C540.514 113.817 580.604 113.817 612.529 133.237L624.901 140.763C656.826 160.183 696.915 160.183 728.841 140.763L741.213 133.237C773.138 113.817 813.227 113.817 845.152 133.237L857.525 140.763C889.45 160.183 929.539 160.183 961.464 140.763L973.837 133.237C1005.76 113.817 1045.85 113.817 1077.78 133.237L1090.15 140.763C1122.07 160.183 1162.16 160.183 1194.09 140.763L1206.46 133.237C1238.39 113.817 1278.47 113.817 1310.4 133.237L1322.77 140.763C1354.7 160.183 1394.79 160.183 1426.71 140.763L1439.08 133.237C1471.01 113.817 1511.1 113.817 1543.02 133.237L1555.4 140.763C1587.32 160.183 1627.41 160.183 1659.33 140.763L1671.71 133.237C1703.63 113.817 1743.72 113.817 1775.65 133.237L1788.02 140.763C1819.94 160.183 1860.03 160.183 1891.96 140.763L1904.33 133.237C1936.26 113.817 1976.35 113.817 2008.27 133.237L2020.64 140.763C2052.57 160.183 2092.66 160.183 2124.58 140.763L2188.92 101.624" stroke="#DCDCDC" stroke-width="6" stroke-linejoin="round" stroke-dasharray="4 12"/>
<path d="M-21 271L43.3421 231.861C75.2673 212.441 115.356 212.441 147.282 231.861L159.654 239.387C191.579 258.807 231.668 258.807 263.593 239.387L275.966 231.861C307.891 212.441 347.98 212.441 379.905 231.861L392.278 239.387C424.203 258.807 464.292 258.807 496.217 239.387L508.589 231.861C540.514 212.441 580.604 212.441 612.529 231.861L624.901 239.387C656.826 258.807 696.915 258.807 728.841 239.387L741.213 231.861C773.138 212.441 813.227 212.441 845.152 231.861L857.525 239.387C889.45 258.807 929.539 258.807 961.464 239.387L973.837 231.861C1005.76 212.441 1045.85 212.441 1077.78 231.861L1090.15 239.387C1122.07 258.807 1162.16 258.807 1194.09 239.387L1206.46 231.861C1238.39 212.441 1278.47 212.441 1310.4 231.861L1322.77 239.387C1354.7 258.807 1394.79 258.807 1426.71 239.387L1439.08 231.861C1471.01 212.441 1511.1 212.441 1543.02 231.861L1555.4 239.387C1587.32 258.807 1627.41 258.807 1659.33 239.387L1671.71 231.861C1703.63 212.441 1743.72 212.441 1775.65 231.861L1788.02 239.387C1819.94 258.807 1860.03 258.807 1891.96 239.387L1904.33 231.861C1936.26 212.441 1976.35 212.441 2008.27 231.861L2020.64 239.387C2052.57 258.807 2092.66 258.807 2124.58 239.387L2188.92 200.248" stroke="#DCDCDC" stroke-width="6" stroke-linejoin="round" stroke-dasharray="4 12"/>
</svg>
